<svg enable-background="new 0 0 640 240" height="320" viewBox="0 0 640 320" width="640" xmlns="http://www.w3.org/2000/svg" xmlns:xlink="http://www.w3.org/1999/xlink"><linearGradient id="a" gradientUnits="userSpaceOnUse" x1="214.11" x2="214.11" xlink:href="#j" y1="305.100001" y2="293.100001"/><linearGradient id="b"><stop offset="0" stop-color="#fff" stop-opacity="0"/><stop offset="1" stop-color="#fff"/></linearGradient><linearGradient id="c" gradientUnits="userSpaceOnUse" x1="39.87" x2="39.87" xlink:href="#b" y1="277.97" y2="263.97"/><linearGradient id="d"><stop offset="0" stop-color="#f67100"/><stop offset=".8" stop-color="#f9cd0b"/></linearGradient><linearGradient id="e" gradientUnits="userSpaceOnUse" x1="39.87" x2="39.87" xlink:href="#d" y1="307.97" y2="247.97"/><linearGradient id="f" gradientUnits="userSpaceOnUse" x1="128.370376" x2="128.370376" xlink:href="#b" y1="280.76367" y2="256.07367"/><linearGradient id="g" gradientUnits="userSpaceOnUse" x1="207.22328" x2="207.22328" xlink:href="#b" y1="270.32839" y2="253.47839"/><linearGradient id="h"><stop offset="0" stop-color="#399fd4"/><stop offset="1" stop-color="#8cd6ea"/></linearGradient><linearGradient id="i" gradientUnits="userSpaceOnUse" x1="205.00328" x2="197.81328" xlink:href="#h" y1="294.09839" y2="253.32839"/><linearGradient id="j"><stop offset="0" stop-color="#6cb8e0"/><stop offset="1" stop-color="#a7dfef"/></linearGradient><linearGradient id="k" gradientUnits="userSpaceOnUse" x1="523.5" x2="516.4" xlink:href="#h" y1="218.3" y2="177.5"/><linearGradient id="l" gradientUnits="userSpaceOnUse" x1="525.8" x2="525.8" xlink:href="#b" y1="194.5" y2="177.6"/><linearGradient id="m" gradientUnits="userSpaceOnUse" x1="354.5" x2="354.5" xlink:href="#d" y1="64" y2="10"/><linearGradient id="n" gradientUnits="userSpaceOnUse" x1="354.5" x2="354.5" xlink:href="#b" y1="37" y2="25"/><linearGradient id="o" gradientUnits="userSpaceOnUse" x1="366" x2="358.9" xlink:href="#h" y1="73.62" y2="32.85"/><linearGradient id="p" gradientUnits="userSpaceOnUse" x1="368.3" x2="368.3" xlink:href="#b" y1="49.85" y2="33"/><linearGradient id="q" gradientUnits="userSpaceOnUse" x1="514.5" x2="514.5" xlink:href="#d" y1="140" y2="86"/><linearGradient id="r" gradientUnits="userSpaceOnUse" x1="514.5" x2="514.5" xlink:href="#b" y1="113" y2="101"/><linearGradient id="s" gradientUnits="userSpaceOnUse" x1="526" x2="518.9" xlink:href="#h" y1="144.6" y2="103.8"/><linearGradient id="t"><stop offset="0" stop-color="#399fd4"/><stop offset=".7" stop-color="#fff"/></linearGradient><linearGradient id="u" gradientUnits="userSpaceOnUse" x1="532" x2="532" xlink:href="#t" y1="154" y2="125"/><linearGradient id="v" gradientUnits="userSpaceOnUse" x1="528.3" x2="528.3" xlink:href="#b" y1="120.8" y2="104"/><linearGradient id="w" gradientUnits="userSpaceOnUse" x1="274.5" x2="274.5" xlink:href="#d" y1="139" y2="85"/><linearGradient id="x" gradientUnits="userSpaceOnUse" x1="274.5" x2="274.5" xlink:href="#b" y1="112" y2="100"/><linearGradient id="y" gradientUnits="userSpaceOnUse" x1="286" x2="278.9" xlink:href="#h" y1="143.6" y2="102.8"/><linearGradient id="z" gradientTransform="matrix(.9999 .0125 -.0125 .9999 693.5 411.9)" gradientUnits="userSpaceOnUse" x1="-433.7" x2="-433.8" xlink:href="#j" y1="-251.5" y2="-263.5"/><linearGradient id="A" gradientTransform="matrix(.9999 .0125 -.0125 .9999 693.5 411.9)" gradientUnits="userSpaceOnUse" x1="-423.7" x2="-423.8" xlink:href="#j" y1="-251.6" y2="-263.6"/><linearGradient id="B" gradientUnits="userSpaceOnUse" x1="292" x2="292" xlink:href="#t" y1="153" y2="124"/><linearGradient id="C" gradientUnits="userSpaceOnUse" x1="288.3" x2="288.3" xlink:href="#b" y1="119.8" y2="103"/><linearGradient id="D" gradientUnits="userSpaceOnUse" x1="114.5" x2="114.5" xlink:href="#d" y1="139" y2="85"/><linearGradient id="E" gradientUnits="userSpaceOnUse" x1="114.5" x2="114.5" xlink:href="#b" y1="112" y2="100"/><linearGradient id="F" gradientUnits="userSpaceOnUse" x1="126" x2="118.9" xlink:href="#h" y1="143.6" y2="102.8"/><linearGradient id="G" gradientTransform="matrix(.9999 .0125 -.0125 .9999 693.5 411.9)" gradientUnits="userSpaceOnUse" x1="-583.5" x2="-583.7" xlink:href="#j" y1="-249.6" y2="-261.6"/><linearGradient id="H" gradientTransform="matrix(.9999 .0125 -.0125 .9999 693.5 411.9)" gradientUnits="userSpaceOnUse" x1="-573.2" x2="-573.3" xlink:href="#j" y1="-249.7" y2="-261.7"/><linearGradient id="I" gradientTransform="matrix(.9999 .0125 -.0125 .9999 693.5 411.9)" gradientUnits="userSpaceOnUse" x1="-562.8" x2="-562.9" xlink:href="#j" y1="-249.9" y2="-261.9"/><linearGradient id="J" gradientUnits="userSpaceOnUse" x1="128.3" x2="128.3" xlink:href="#b" y1="119.8" y2="103"/><linearGradient id="K" gradientUnits="userSpaceOnUse" x1="203.5" x2="196.4" xlink:href="#h" y1="216.1" y2="175.3"/><linearGradient id="L" gradientTransform="matrix(.9999 .0125 -.0125 .9999 693.5 411.9)" gradientUnits="userSpaceOnUse" x1="-514.1" x2="-514.3" xlink:href="#j" y1="-178" y2="-190"/><linearGradient id="M" gradientTransform="matrix(.9999 .0125 -.0125 .9999 693.5 411.9)" gradientUnits="userSpaceOnUse" x1="-503.8" x2="-503.9" xlink:href="#j" y1="-178.1" y2="-190.1"/><linearGradient id="N" gradientTransform="matrix(.9999 .0125 -.0125 .9999 693.5 411.9)" gradientUnits="userSpaceOnUse" x1="-493.4" x2="-493.5" xlink:href="#j" y1="-178.2" y2="-190.2"/><linearGradient id="O"><stop offset="0" stop-color="#f67100"/><stop offset=".62" stop-color="#f9cd0b"/></linearGradient><linearGradient id="P" gradientUnits="userSpaceOnUse" x1="215" x2="215" xlink:href="#O" y1="227.5" y2="187.5"/><linearGradient id="Q" gradientUnits="userSpaceOnUse" x1="205.8" x2="205.8" xlink:href="#b" y1="192.3" y2="175.5"/><linearGradient id="R" gradientUnits="userSpaceOnUse" x1="283.5" x2="276.4" xlink:href="#h" y1="216.1" y2="175.3"/><linearGradient id="S" gradientUnits="userSpaceOnUse" x1="295" x2="295" xlink:href="#O" y1="227.5" y2="187.5"/><linearGradient id="T" gradientUnits="userSpaceOnUse" x1="285.8" x2="285.8" xlink:href="#b" y1="192.3" y2="175.5"/><linearGradient id="U" gradientUnits="userSpaceOnUse" x1="584" x2="584" xlink:href="#j" y1="226.5" y2="216.5"/><linearGradient id="V" gradientUnits="userSpaceOnUse" x1="600" x2="600" xlink:href="#j" y1="226.5" y2="216.5"/><linearGradient id="W" gradientUnits="userSpaceOnUse" x1="616" x2="616" xlink:href="#j" y1="226.5" y2="216.5"/><linearGradient id="X" gradientUnits="userSpaceOnUse" x1="603.5" x2="596.4" xlink:href="#h" y1="217.1" y2="176.3"/><linearGradient id="Y" gradientUnits="userSpaceOnUse" x1="605.8" x2="605.8" xlink:href="#b" y1="193.3" y2="176.5"/><linearGradient id="Z" gradientUnits="userSpaceOnUse" x1="443.5" x2="436.4" xlink:href="#h" y1="136.1" y2="95.35"/><linearGradient id="aa" gradientUnits="userSpaceOnUse" x1="451.5" x2="451.5" xlink:href="#t" y1="146.5" y2="117.5"/><linearGradient id="ab" gradientTransform="matrix(.9999 .0125 -.0125 .9999 693.5 411.9)" gradientUnits="userSpaceOnUse" x1="-275.3" x2="-275.4" xlink:href="#j" y1="-261" y2="-273"/><linearGradient id="ac" gradientTransform="matrix(.9999 .0125 -.0125 .9999 693.5 411.9)" gradientUnits="userSpaceOnUse" x1="-265.3" x2="-265.4" xlink:href="#j" y1="-261.1" y2="-273.1"/><linearGradient id="ad" gradientUnits="userSpaceOnUse" x1="445.8" x2="445.8" xlink:href="#b" y1="112.3" y2="95.5"/><linearGradient id="ae" gradientUnits="userSpaceOnUse" x1="40" x2="40" xlink:href="#d" y1="70" y2="10"/><linearGradient id="af" gradientUnits="userSpaceOnUse" x1="40" x2="40" xlink:href="#b" y1="40" y2="26"/><linearGradient id="ag" gradientUnits="userSpaceOnUse" x1="196.5" x2="196.5" xlink:href="#d" y1="64" y2="10"/><linearGradient id="ah" gradientUnits="userSpaceOnUse" x1="210.7" x2="205.3" xlink:href="#h" y1="72.71" y2="42.14"/><linearGradient id="ai" gradientUnits="userSpaceOnUse" x1="212.3" x2="212.3" xlink:href="#b" y1="57.75" y2="45.12"/><linearGradient id="aj" gradientUnits="userSpaceOnUse" x1="196.5" x2="196.5" xlink:href="#b" y1="37" y2="25"/><linearGradient id="ak"><stop offset="0" stop-color="#f9cd0b"/><stop offset="1" stop-color="#f9e47e"/></linearGradient><linearGradient id="al" gradientUnits="userSpaceOnUse" x1="428.8" x2="428.8" xlink:href="#ak" y1="57" y2="8.5"/><linearGradient id="am" gradientUnits="userSpaceOnUse" x1="438.7" x2="438.7" xlink:href="#b" y1="35.67" y2="10.97"/><linearGradient id="an" gradientUnits="userSpaceOnUse" x1="446" x2="438.9" xlink:href="#h" y1="75.12" y2="34.35"/><linearGradient id="ao" gradientUnits="userSpaceOnUse" x1="448.3" x2="448.3" xlink:href="#b" y1="51.35" y2="34.5"/><linearGradient id="ap" gradientUnits="userSpaceOnUse" x1="585.5" x2="585.5" xlink:href="#ak" y1="129" y2="86"/><linearGradient id="aq" gradientUnits="userSpaceOnUse" x1="594.3" x2="594.3" xlink:href="#b" y1="110.1" y2="88.19"/><linearGradient id="ar" gradientUnits="userSpaceOnUse" x1="607" x2="599.9" xlink:href="#h" y1="144.6" y2="103.8"/><linearGradient id="as" gradientUnits="userSpaceOnUse" x1="613" x2="613" xlink:href="#t" y1="154" y2="125"/><linearGradient id="at" gradientUnits="userSpaceOnUse" x1="609.3" x2="609.3" xlink:href="#b" y1="120.8" y2="104"/><linearGradient id="au" gradientUnits="userSpaceOnUse" x1="345.5" x2="345.5" xlink:href="#ak" y1="128" y2="85"/><linearGradient id="av" gradientUnits="userSpaceOnUse" x1="354.3" x2="354.3" xlink:href="#b" y1="109.1" y2="87.19"/><linearGradient id="aw" gradientUnits="userSpaceOnUse" x1="367" x2="359.9" xlink:href="#h" y1="143.6" y2="102.8"/><linearGradient id="ax" gradientTransform="matrix(.9999 .0125 -.0125 .9999 693.5 411.9)" gradientUnits="userSpaceOnUse" x1="-352.7" x2="-352.8" xlink:href="#j" y1="-252.5" y2="-264.5"/><linearGradient id="ay" gradientTransform="matrix(.9999 .0125 -.0125 .9999 693.5 411.9)" gradientUnits="userSpaceOnUse" x1="-342.7" x2="-342.8" xlink:href="#j" y1="-252.6" y2="-264.6"/><linearGradient id="az" gradientUnits="userSpaceOnUse" x1="373" x2="373" xlink:href="#t" y1="153" y2="124"/><linearGradient id="aA" gradientUnits="userSpaceOnUse" x1="369.3" x2="369.3" xlink:href="#b" y1="119.8" y2="103"/><linearGradient id="aB" gradientTransform="matrix(.9999 .0125 -.0125 .9999 693.5 411.9)" gradientUnits="userSpaceOnUse" x1="-493.2" x2="-493.3" xlink:href="#j" y1="-250.7" y2="-262.7"/><linearGradient id="aC" gradientTransform="matrix(.9999 .0125 -.0125 .9999 693.5 411.9)" gradientUnits="userSpaceOnUse" x1="-482.8" x2="-482.9" xlink:href="#j" y1="-250.9" y2="-262.9"/><linearGradient id="aD" gradientUnits="userSpaceOnUse" x1="185.5" x2="185.5" xlink:href="#ak" y1="128" y2="85"/><linearGradient id="aE" gradientUnits="userSpaceOnUse" x1="194.3" x2="194.3" xlink:href="#b" y1="109.1" y2="87.19"/><linearGradient id="aF" gradientUnits="userSpaceOnUse" x1="207" x2="199.9" xlink:href="#h" y1="143.6" y2="102.8"/><linearGradient id="aG" gradientTransform="matrix(.9999 .0125 -.0125 .9999 693.5 411.9)" gradientUnits="userSpaceOnUse" x1="-503.5" x2="-503.7" xlink:href="#j" y1="-250.6" y2="-262.6"/><linearGradient id="aH" gradientUnits="userSpaceOnUse" x1="209.3" x2="209.3" xlink:href="#b" y1="119.8" y2="103"/><linearGradient id="aI" gradientUnits="userSpaceOnUse" x1="591.8" x2="591.8" xlink:href="#b" y1="33.62" y2="15.86"/><linearGradient id="aJ" gradientUnits="userSpaceOnUse" x1="603.5" x2="596.4" xlink:href="#h" y1="69.12" y2="28.35"/><linearGradient id="aK" gradientUnits="userSpaceOnUse" x1="605.8" x2="605.8" xlink:href="#b" y1="45.35" y2="28.5"/><linearGradient id="aL" gradientUnits="userSpaceOnUse" x1="271.3" x2="271.3" xlink:href="#ak" y1="58.5" y2="10"/><linearGradient id="aM" gradientUnits="userSpaceOnUse" x1="281.2" x2="281.2" xlink:href="#b" y1="37.17" y2="12.47"/><linearGradient id="aN" gradientUnits="userSpaceOnUse" x1="290.2" x2="284.8" xlink:href="#h" y1="72.71" y2="42.14"/><linearGradient id="aO" gradientUnits="userSpaceOnUse" x1="291.8" x2="291.8" xlink:href="#b" y1="57.75" y2="45.12"/><linearGradient id="aP" gradientUnits="userSpaceOnUse" x1="129.9" x2="129.9" xlink:href="#b" y1="42.92" y2="18.23"/><linearGradient id="aQ" gradientUnits="userSpaceOnUse" x1="514" x2="514" y1="59.17" y2="17.52"><stop offset="0" stop-color="#f67100"/><stop offset="1" stop-color="#f9cd0b"/></linearGradient><linearGradient id="aR" gradientUnits="userSpaceOnUse" x1="524.5" x2="517.4" xlink:href="#h" y1="66.12" y2="25.35"/><linearGradient id="aS" gradientUnits="userSpaceOnUse" x1="526.8" x2="526.8" xlink:href="#b" y1="42.35" y2="25.5"/><linearGradient id="aT" gradientUnits="userSpaceOnUse" x1="367.7" x2="361.9" xlink:href="#h" y1="211.3" y2="178.1"/><linearGradient id="aU" gradientUnits="userSpaceOnUse" x1="367" x2="367" xlink:href="#b" y1="195.8" y2="179"/><linearGradient id="aV" gradientUnits="userSpaceOnUse" x1="43.55" x2="36.36" xlink:href="#h" y1="143.6" y2="102.8"/><linearGradient id="aW" gradientUnits="userSpaceOnUse" x1="45.97" x2="45.97" xlink:href="#b" y1="119.8" y2="103"/><linearGradient id="aX" gradientUnits="userSpaceOnUse" x1="28.89" x2="28.89" xlink:href="#j" y1="227.5" y2="215.5"/><linearGradient id="aY" gradientUnits="userSpaceOnUse" x1="39.28" x2="39.28" xlink:href="#j" y1="227.5" y2="215.5"/><linearGradient id="aZ" gradientUnits="userSpaceOnUse" x1="49.66" x2="49.66" xlink:href="#j" y1="227.5" y2="215.5"/><linearGradient id="a0" gradientUnits="userSpaceOnUse" x1="43.55" x2="36.36" xlink:href="#h" y1="216.1" y2="175.3"/><linearGradient id="a1" gradientUnits="userSpaceOnUse" x1="45.77" x2="45.77" xlink:href="#b" y1="192.3" y2="175.5"/><linearGradient id="a2" gradientUnits="userSpaceOnUse" x1="109.6" x2="109.6" xlink:href="#j" y1="232.5" y2="220.5"/><linearGradient id="a3" gradientUnits="userSpaceOnUse" x1="120" x2="120" xlink:href="#j" y1="232.5" y2="220.5"/><linearGradient id="a4" gradientUnits="userSpaceOnUse" x1="130.4" x2="130.4" xlink:href="#j" y1="232.5" y2="220.5"/><linearGradient id="a5" gradientUnits="userSpaceOnUse" x1="104.6" x2="104.6" xlink:href="#j" y1="222.5" y2="210.5"/><linearGradient id="a6" gradientUnits="userSpaceOnUse" x1="114.9" x2="114.9" xlink:href="#j" y1="222.5" y2="210.5"/><linearGradient id="a7" gradientUnits="userSpaceOnUse" x1="125.1" x2="125.1" xlink:href="#j" y1="222.5" y2="210.5"/><linearGradient id="a8" gradientUnits="userSpaceOnUse" x1="135.4" x2="135.4" xlink:href="#j" y1="222.5" y2="210.5"/><linearGradient id="a9" gradientUnits="userSpaceOnUse" x1="123.5" x2="116.4" xlink:href="#h" y1="211.1" y2="170.3"/><linearGradient id="ba" gradientUnits="userSpaceOnUse" x1="125.8" x2="125.8" xlink:href="#b" y1="187.3" y2="170.5"/><linearGradient id="bb" gradientUnits="userSpaceOnUse" x1="443.5" x2="436.4" xlink:href="#h" y1="216.6" y2="175.8"/><linearGradient id="bc" gradientUnits="userSpaceOnUse" x1="451.5" x2="451.5" xlink:href="#t" y1="227" y2="198"/><linearGradient id="bd" gradientUnits="userSpaceOnUse" x1="445.8" x2="445.8" xlink:href="#b" y1="192.8" y2="176"/><path d="m550 206.1c0 4.7-3 8.5-6.3 8.5h-45.9c-2.7 0-7.8-4-7.8-10 0-5 4.5-9.1 10-9.1.8 0 1.5.1 2.2.2v-.3c0-6.3 5.4-11.3 12.1-11.3 1.7 0 3.3.3 4.8.9 2.3-6.1 8-10.4 14.8-10.4 8.8 0 15.8 7.2 15.8 16.1 0 3.7-1.2 7-3.2 9.7 1.9 1.1 3.5 3.4 3.5 5.7z" fill="url(#k)"/><g fill="#6cb8e0"><path d="m496.6 219.4c0 .4-.4.8-.8.8s-.8-.4-.8-.8.4-.8.8-.8c.5 0 .8.4.8.8z"/><path d="m501.5 219.4c0 .4-.4.8-.8.8s-.8-.4-.8-.8.4-.8.8-.8.8.4.8.8z"/><path d="m506.3 219.4c0 .4-.4.8-.8.8s-.8-.4-.8-.8.4-.8.8-.8.8.4.8.8z"/><path d="m511.1 219.4c0 .4-.4.8-.8.8s-.8-.4-.8-.8.4-.8.8-.8c.5 0 .8.4.8.8z"/><path d="m516 219.4c0 .4-.4.8-.8.8s-.8-.4-.8-.8.4-.8.8-.8.8.4.8.8z"/><path d="m520.8 219.4c0 .4-.4.8-.8.8s-.8-.4-.8-.8.4-.8.8-.8.8.4.8.8z"/><path d="m525.7 219.4c0 .4-.4.8-.8.8s-.8-.4-.8-.8.4-.8.8-.8.8.4.8.8z"/><path d="m530.5 219.4c0 .4-.4.8-.8.8s-.8-.4-.8-.8.4-.8.8-.8.8.4.8.8z"/><path d="m535.3 219.4c0 .4-.4.8-.8.8s-.8-.4-.8-.8.4-.8.8-.8c.5 0 .8.4.8.8z"/><path d="m540.2 219.4c0 .4-.4.8-.8.8s-.8-.4-.8-.8.4-.8.8-.8.8.4.8.8z"/><path d="m545 219.4c0 .4-.4.8-.8.8s-.8-.4-.8-.8.4-.8.8-.8.8.4.8.8z"/><path d="m498.8 224.6c0 .4-.4.8-.8.8s-.8-.4-.8-.8.4-.8.8-.8c.4-.1.8.3.8.8z"/><circle cx="502.8" cy="224.6" r=".8"/><path d="m508.5 224.6c0 .4-.4.8-.8.8s-.8-.4-.8-.8.4-.8.8-.8c.4-.1.8.3.8.8z"/><path d="m513.3 224.6c0 .4-.4.8-.8.8s-.8-.4-.8-.8.4-.8.8-.8c.5-.1.8.3.8.8z"/><path d="m518.2 224.6c0 .4-.4.8-.8.8s-.8-.4-.8-.8.4-.8.8-.8c.4-.1.8.3.8.8z"/><circle cx="522.2" cy="224.6" r=".8"/><path d="m527.8 224.6c0 .4-.4.8-.8.8s-.8-.4-.8-.8.4-.8.8-.8c.5-.1.8.3.8.8z"/><path d="m532.7 224.6c0 .4-.4.8-.8.8s-.8-.4-.8-.8.4-.8.8-.8c.4-.1.8.3.8.8z"/><path d="m537.5 224.6c0 .4-.4.8-.8.8s-.8-.4-.8-.8.4-.8.8-.8c.4-.1.8.3.8.8z"/><circle cx="541.5" cy="224.6" r=".8"/></g><path d="m507.1 197.5-.1-2.1c0-3.5 3.2-6.3 7.1-6.3 1 0 2 .2 2.9.6l4.8 1.9 1.8-4.8c1.6-4.3 5.7-7.1 10.1-7.1 6 0 10.8 5 10.8 11.1 0 2.5-.8 4.8-2.2 6.7l-.1.1h2.4c1.2-2 1.9-4.4 1.9-6.8 0-7.2-5.8-13.1-12.8-13.1-5.3 0-10.1 3.4-12 8.4l-1.1 2.9-2.9-1.1c-1.1-.5-2.4-.7-3.6-.7-5 0-9.1 3.7-9.1 8.4l.1 2h2z" fill="url(#l)" opacity=".6"/><path d="m379.9 35.4h-10.2c-.2-1.7-.6-3.2-1.3-4.7l8.8-5.1c.8-.4 1-1.4.6-2.1-.4-.8-1.4-1-2.1-.6l-8.8 5.1c-1-1.3-2.1-2.5-3.4-3.4l5.1-8.8c.4-.8.2-1.7-.6-2.1s-1.7-.2-2.1.6l-5.1 8.8c-1.5-.7-3-1.1-4.7-1.3v-10.2c0-.9-.7-1.6-1.6-1.6s-1.6.7-1.6 1.6v10.2c-1.7.2-3.2.6-4.7 1.3l-5.1-8.8c-.4-.8-1.4-1-2.1-.6-.8.4-1 1.4-.6 2.1l5.1 8.8c-1.3 1-2.5 2.1-3.4 3.4l-8.8-5.1c-.8-.4-1.7-.2-2.1.6s-.2 1.7.6 2.1l8.8 5.1c-.7 1.5-1.1 3-1.3 4.7h-10.2c-.9 0-1.6.7-1.6 1.6s.7 1.6 1.6 1.6h10.2c.2 1.7.6 3.2 1.3 4.7l-8.8 5.1c-.8.4-1 1.4-.6 2.1.4.8 1.4 1 2.1.6l8.8-5.1c1 1.3 2.1 2.5 3.4 3.4l-5.1 8.8c-.4.8-.2 1.7.6 2.1s1.7.2 2.1-.6l5.1-8.8c1.5.7 3 1.1 4.7 1.3v10.2c0 .9.7 1.6 1.6 1.6s1.6-.7 1.6-1.6v-10.2c1.7-.2 3.2-.6 4.7-1.3l5.1 8.8c.4.8 1.4 1 2.1.6.8-.4 1-1.4.6-2.1l-5.1-8.8c1.3-1 2.5-2.1 3.4-3.4l8.8 5.1c.8.4 1.7.2 2.1-.6s.2-1.7-.6-2.1l-8.8-5.1c.7-1.5 1.1-3 1.3-4.7h10.2c.9 0 1.6-.7 1.6-1.6s-.7-1.6-1.6-1.6z" fill="url(#m)"/><path d="m366.5 37h-2c0-5.5-4.5-10-10-10s-10 4.5-10 10h-2c0-6.6 5.4-12 12-12s12 5.4 12 12z" fill="url(#n)" opacity=".45"/><path d="m392.5 61.5c0 4.7-3 8.5-6.3 8.5h-45.9c-2.7 0-7.8-4-7.8-10 0-5 4.5-9.1 10-9.1.8 0 1.5.1 2.2.2v-.3c0-6.3 5.4-11.3 12.1-11.3 1.7 0 3.3.3 4.8.9 2.3-6.1 8.1-10.4 14.8-10.4 8.8 0 15.8 7.2 15.8 16.1 0 3.7-1.2 7-3.2 9.7 1.9 1 3.5 3.4 3.5 5.7z" fill="url(#o)"/><path d="m349.6 52.8-.1-2.1c0-3.5 3.2-6.3 7.1-6.3 1 0 2 .2 2.9.6l4.8 1.9 1.8-4.8c1.6-4.3 5.7-7.1 10.1-7.1 6 0 10.8 5 10.8 11.1 0 2.5-.8 4.8-2.2 6.7l-.1.1h2.4c1.2-2 1.9-4.4 1.9-6.8 0-7.2-5.8-13.1-12.8-13.1-5.3 0-10.1 3.4-12 8.4l-1.1 2.9-2.9-1.1c-1.1-.5-2.4-.7-3.6-.7-5 0-9.1 3.7-9.1 8.4l.1 2h2z" fill="url(#p)" opacity=".6"/><path d="m539.9 111.4h-10.2c-.2-1.7-.6-3.2-1.3-4.7l8.8-5.1c.8-.4 1-1.4.6-2.1-.4-.8-1.4-1-2.1-.6l-8.8 5.1c-1-1.3-2.1-2.5-3.4-3.4l5.1-8.8c.4-.8.2-1.7-.6-2.1s-1.7-.2-2.1.6l-5.1 8.8c-1.5-.7-3-1.1-4.7-1.3v-10.2c0-.9-.7-1.6-1.6-1.6s-1.6.7-1.6 1.6v10.2c-1.7.2-3.2.6-4.7 1.3l-5.1-8.8c-.4-.8-1.4-1-2.1-.6-.8.4-1 1.4-.6 2.1l5.1 8.8c-1.3 1-2.5 2.1-3.4 3.4l-8.8-5.1c-.8-.4-1.7-.2-2.1.6s-.2 1.7.6 2.1l8.8 5.1c-.7 1.5-1.1 3-1.3 4.7h-10.2c-.9 0-1.6.7-1.6 1.6s.7 1.6 1.6 1.6h10.2c.2 1.7.6 3.2 1.3 4.7l-8.8 5.1c-.8.4-1 1.4-.6 2.1.4.8 1.4 1 2.1.6l8.8-5.1c1 1.3 2.1 2.5 3.4 3.4l-5.1 8.8c-.4.8-.2 1.7.6 2.1s1.7.2 2.1-.6l5.1-8.8c1.5.7 3 1.1 4.7 1.3v10.2c0 .9.7 1.6 1.6 1.6s1.6-.7 1.6-1.6v-10.2c1.7-.2 3.2-.6 4.7-1.3l5.1 8.8c.4.8 1.4 1 2.1.6.8-.4 1-1.4.6-2.1l-5.1-8.8c1.3-1 2.5-2.1 3.4-3.4l8.8 5.1c.8.4 1.7.2 2.1-.6s.2-1.7-.6-2.1l-8.8-5.1c.7-1.5 1.1-3 1.3-4.7h10.2c.9 0 1.6-.7 1.6-1.6s-.7-1.6-1.6-1.6z" fill="url(#q)"/><path d="m526.5 113h-2c0-5.5-4.5-10-10-10s-10 4.5-10 10h-2c0-6.6 5.4-12 12-12s12 5.4 12 12z" fill="url(#r)" opacity=".45"/><path d="m552.5 132.5c0 4.7-3 8.5-6.3 8.5h-45.9c-2.7 0-7.8-4-7.8-10 0-5 4.5-9.1 10-9.1.8 0 1.5.1 2.2.2v-.3c0-6.3 5.4-11.3 12.1-11.3 1.7 0 3.3.3 4.8.9 2.3-6.1 8-10.4 14.8-10.4 8.8 0 15.8 7.2 15.8 16.1 0 3.7-1.2 7-3.2 9.7 1.9 1 3.5 3.4 3.5 5.7z" fill="url(#s)"/><path d="m530.7 149.8v3.5l1.3.7 1.3-.7v-3.5l2.5 1.5 1.3-.7v-1.4l-3.8-2.4v-5.1l4.4 2.6.1 4.5 1.2.7 1.3-.8-.1-2.9 3 1.7 1.3-.7v-.1.1-1.5l-3-1.7 2.6-1.5.1-1.5-1.3-.7-3.9 2.2-4.5-2.6 4.5-2.6 3.9 2.2 1.3-.7-.1-1.5-2.6-1.5 3-1.7v-1.4l-1.3-.8-3 1.7.1-2.9-1.3-.8-1.2.7-.1 4.5-4.4 2.6v-5.1l3.8-2.4v-1.4l-1.3-.7-2.5 1.5v-3.5l-1.3-.7-1.3.7v3.5l-2.5-1.5-1.3.7v1.4l3.8 2.4v5.1l-4.4-2.6-.1-4.5-1.2-.7-1.3.8.1 2.9-3-1.7-1.3.8v1.4l3 1.7-2.6 1.5-.1 1.5 1.3.7 3.9-2.2 4.5 2.6-4.5 2.6-3.9-2.2-1.3.7.1 1.5 2.6 1.5-3 1.7v1.5l1.3.7 3-1.7-.1 2.9 1.3.8 1.2-.7.1-4.5 4.4-2.6v5.1l-3.8 2.4v1.4l1.3.7z" fill="url(#u)"/><path d="m509.6 123.8-.1-2.1c0-3.5 3.2-6.3 7.1-6.3 1 0 2 .2 2.9.6l4.8 1.9 1.8-4.8c1.6-4.3 5.7-7.1 10.1-7.1 6 0 10.8 5 10.8 11.1 0 2.5-.8 4.8-2.2 6.7l-.1.1h2.4c1.2-2 1.9-4.4 1.9-6.8 0-7.2-5.8-13.1-12.8-13.1-5.3 0-10.1 3.4-12 8.4l-1.1 2.9-2.9-1.1c-1.1-.5-2.4-.7-3.6-.7-5 0-9.1 3.7-9.1 8.4l.1 2h2z" fill="url(#v)" opacity=".6"/><path d="m299.9 110.4h-10.2c-.2-1.7-.6-3.2-1.3-4.7l8.8-5.1c.8-.4 1-1.4.6-2.1-.4-.8-1.4-1-2.1-.6l-8.8 5.1c-1-1.3-2.1-2.5-3.4-3.4l5.1-8.8c.4-.8.2-1.7-.6-2.1s-1.7-.2-2.1.6l-5.1 8.8c-1.5-.7-3-1.1-4.7-1.3v-10.2c0-.9-.7-1.6-1.6-1.6s-1.6.7-1.6 1.6v10.2c-1.7.2-3.2.6-4.7 1.3l-5.1-8.8c-.4-.8-1.4-1-2.1-.6-.8.4-1 1.4-.6 2.1l5.1 8.8c-1.3 1-2.5 2.1-3.4 3.4l-8.8-5.1c-.8-.4-1.7-.2-2.1.6s-.2 1.7.6 2.1l8.8 5.1c-.7 1.5-1.1 3-1.3 4.7h-10.2c-.9 0-1.6.7-1.6 1.6s.7 1.6 1.6 1.6h10.2c.2 1.7.6 3.2 1.3 4.7l-8.8 5.1c-.8.4-1 1.4-.6 2.1.4.8 1.4 1 2.1.6l8.8-5.1c1 1.3 2.1 2.5 3.4 3.4l-5.1 8.8c-.4.8-.2 1.7.6 2.1s1.7.2 2.1-.6l5.1-8.8c1.5.7 3 1.1 4.7 1.3v10.2c0 .9.7 1.6 1.6 1.6s1.6-.7 1.6-1.6v-10.2c1.7-.2 3.2-.6 4.7-1.3l5.1 8.8c.4.8 1.4 1 2.1.6.8-.4 1-1.4.6-2.1l-5.1-8.8c1.3-1 2.5-2.1 3.4-3.4l8.8 5.1c.8.4 1.7.2 2.1-.6s.2-1.7-.6-2.1l-8.8-5.1c.7-1.5 1.1-3 1.3-4.7h10.2c.9 0 1.6-.7 1.6-1.6s-.7-1.6-1.6-1.6z" fill="url(#w)"/><path d="m286.5 112h-2c0-5.5-4.5-10-10-10s-10 4.5-10 10h-2c0-6.6 5.4-12 12-12s12 5.4 12 12z" fill="url(#x)" opacity=".45"/><path d="m312.5 131.5c0 4.7-3 8.5-6.3 8.5h-45.9c-2.7 0-7.8-4-7.8-10 0-5 4.5-9.1 10-9.1.8 0 1.5.1 2.2.2v-.3c0-6.3 5.4-11.3 12.1-11.3 1.7 0 3.3.3 4.8.9 2.3-6.1 8-10.4 14.8-10.4 8.8 0 15.8 7.2 15.8 16.1 0 3.7-1.2 7-3.2 9.7 1.9 1 3.5 3.4 3.5 5.7z" fill="url(#y)"/><path d="m266.4 150.2c-.1-.3-.2-.6-.3-.8l-3-6.4-3.2 6.3c-.1.3-.2.5-.3.8l-.1.3c0 .2-.1.4-.1.6 0 2.1 1.3 3.9 3.5 3.9 2.1 0 3.5-1.7 3.5-3.8z" fill="url(#z)"/><path d="m276.4 150.2c-.1-.3-.2-.6-.3-.8l-3-6.4-3.2 6.3c-.1.3-.2.5-.3.8l-.1.3c0 .2-.1.4-.1.6 0 2.1 1.3 3.9 3.5 3.9 2.1 0 3.5-1.7 3.5-3.8z" fill="url(#A)"/><path d="m290.7 148.8v3.5l1.3.7 1.3-.7v-3.5l2.5 1.5 1.3-.7v-1.4l-3.8-2.4v-5.1l4.4 2.6.1 4.5 1.2.7 1.3-.8-.1-2.9 3 1.7 1.3-.7v-.1.1-1.5l-3-1.7 2.6-1.5.1-1.5-1.3-.7-3.9 2.2-4.5-2.6 4.5-2.6 3.9 2.2 1.3-.7-.1-1.5-2.6-1.5 3-1.7v-1.4l-1.3-.8-3 1.7.1-2.9-1.3-.8-1.2.7-.1 4.5-4.4 2.6v-5.1l3.8-2.4v-1.4l-1.3-.7-2.5 1.5v-3.5l-1.3-.7-1.3.7v3.5l-2.5-1.5-1.3.7v1.4l3.8 2.4v5.1l-4.4-2.6-.1-4.5-1.2-.7-1.3.8.1 2.9-3-1.7-1.3.8v1.4l3 1.7-2.6 1.5-.1 1.5 1.3.7 3.9-2.2 4.5 2.6-4.5 2.6-3.9-2.2-1.3.7.1 1.5 2.6 1.5-3 1.7v1.5l1.3.7 3-1.7-.1 2.9 1.3.8 1.2-.7.1-4.5 4.4-2.6v5.1l-3.8 2.4v1.4l1.3.7z" fill="url(#B)"/><path d="m269.6 122.8-.1-2.1c0-3.5 3.2-6.3 7.1-6.3 1 0 2 .2 2.9.6l4.8 1.9 1.8-4.8c1.6-4.3 5.7-7.1 10.1-7.1 6 0 10.8 5 10.8 11.1 0 2.5-.8 4.8-2.2 6.7l-.1.1h2.4c1.2-2 1.9-4.4 1.9-6.8 0-7.2-5.8-13.1-12.8-13.1-5.3 0-10.1 3.4-12 8.4l-1.1 2.9-2.9-1.1c-1.1-.5-2.4-.7-3.6-.7-5 0-9.1 3.7-9.1 8.4l.1 2h2z" fill="url(#C)" opacity=".6"/><path d="m139.9 110.4h-10.2c-.2-1.7-.6-3.2-1.3-4.7l8.8-5.1c.8-.4 1-1.4.6-2.1-.4-.8-1.4-1-2.1-.6l-8.8 5.1c-1-1.3-2.1-2.5-3.4-3.4l5.1-8.8c.4-.8.2-1.7-.6-2.1s-1.7-.2-2.1.6l-5.1 8.8c-1.5-.7-3-1.1-4.7-1.3v-10.2c0-.9-.7-1.6-1.6-1.6s-1.6.7-1.6 1.6v10.2c-1.7.2-3.2.6-4.7 1.3l-5.1-8.8c-.4-.8-1.4-1-2.1-.6-.8.4-1 1.4-.6 2.1l5.1 8.8c-1.3 1-2.5 2.1-3.4 3.4l-8.8-5.1c-.8-.4-1.7-.2-2.1.6s-.2 1.7.6 2.1l8.8 5.1c-.7 1.5-1.1 3-1.3 4.7h-10.2c-.9 0-1.6.7-1.6 1.6s.7 1.6 1.6 1.6h10.2c.2 1.7.6 3.2 1.3 4.7l-8.8 5.1c-.8.4-1 1.4-.6 2.1.4.8 1.4 1 2.1.6l8.8-5.1c1 1.3 2.1 2.5 3.4 3.4l-5.1 8.8c-.4.8-.2 1.7.6 2.1s1.7.2 2.1-.6l5.1-8.8c1.5.7 3 1.1 4.7 1.3v10.2c0 .9.7 1.6 1.6 1.6s1.6-.7 1.6-1.6v-10.2c1.7-.2 3.2-.6 4.7-1.3l5.1 8.8c.4.8 1.4 1 2.1.6.8-.4 1-1.4.6-2.1l-5.1-8.8c1.3-1 2.5-2.1 3.4-3.4l8.8 5.1c.8.4 1.7.2 2.1-.6s.2-1.7-.6-2.1l-8.8-5.1c.7-1.5 1.1-3 1.3-4.7h10.2c.9 0 1.6-.7 1.6-1.6s-.7-1.6-1.6-1.6z" fill="url(#D)"/><path d="m126.5 112h-2c0-5.5-4.5-10-10-10s-10 4.5-10 10h-2c0-6.6 5.4-12 12-12s12 5.4 12 12z" fill="url(#E)" opacity=".45"/><path d="m152.5 131.5c0 4.7-3 8.5-6.3 8.5h-45.9c-2.7 0-7.8-4-7.8-10 0-5 4.5-9.1 10-9.1.8 0 1.5.1 2.2.2v-.3c0-6.3 5.4-11.3 12.1-11.3 1.7 0 3.3.3 4.8.9 2.3-6.1 8-10.4 14.8-10.4 8.8 0 15.8 7.2 15.8 16.1 0 3.7-1.2 7-3.2 9.7 1.9 1 3.5 3.4 3.5 5.7z" fill="url(#F)"/><path d="m116.6 150.2c-.1-.3-.2-.6-.3-.8l-3.1-6.4-3.3 6.3c-.1.3-.3.5-.3.8l-.1.3c0 .2-.1.4-.1.6 0 2.1 1.4 3.9 3.6 3.9s3.6-1.7 3.7-3.8v-.6z" fill="url(#G)"/><path d="m127 150.2c-.1-.3-.2-.6-.3-.8l-3.1-6.4-3.3 6.3c-.1.3-.3.5-.3.8l-.1.3c0 .2-.1.4-.1.6 0 2.1 1.4 3.9 3.6 3.9s3.6-1.7 3.7-3.8v-.6z" fill="url(#H)"/><path d="m137.4 150.2c-.1-.3-.2-.6-.3-.8l-3.1-6.4-3.3 6.3c-.1.3-.3.5-.3.8l-.1.3c0 .2-.1.4-.1.6 0 2.1 1.4 3.9 3.6 3.9s3.6-1.7 3.7-3.8v-.6z" fill="url(#I)"/><path d="m109.6 122.8-.1-2.1c0-3.5 3.2-6.3 7.1-6.3 1 0 2 .2 2.9.6l4.8 1.9 1.8-4.8c1.6-4.3 5.7-7.1 10.1-7.1 6 0 10.8 5 10.8 11.1 0 2.5-.8 4.8-2.2 6.7l-.1.1h2.4c1.2-2 1.9-4.4 1.9-6.8 0-7.2-5.8-13.1-12.8-13.1-5.3 0-10.1 3.4-12 8.4l-1.1 2.9-2.9-1.1c-1.1-.5-2.4-.7-3.6-.7-5 0-9.1 3.7-9.1 8.4l.1 2h2z" fill="url(#J)" opacity=".6"/><path d="m230 204c0 4.7-3 8.5-6.3 8.5h-45.9c-2.7 0-7.8-4-7.8-10 0-5 4.5-9.1 10-9.1.8 0 1.5.1 2.2.2v-.3c0-6.3 5.4-11.3 12.1-11.3 1.7 0 3.3.3 4.8.9 2.3-6.1 8-10.4 14.8-10.4 8.8 0 15.8 7.2 15.8 16.1 0 3.7-1.2 7-3.2 9.7 1.9 1 3.5 3.4 3.5 5.7z" fill="url(#K)"/><path d="m185.1 222.7c-.1-.3-.2-.6-.3-.8l-3.1-6.4-3.3 6.3c-.1.3-.3.5-.3.8l-.1.3c0 .2-.1.4-.1.6 0 2.1 1.4 3.9 3.6 3.9s3.6-1.7 3.7-3.8v-.6z" fill="url(#L)"/><path d="m195.5 222.7c-.1-.3-.2-.6-.3-.8l-3.1-6.4-3.3 6.3c-.1.3-.3.5-.3.8l-.1.3c0 .2-.1.4-.1.6 0 2.1 1.4 3.9 3.6 3.9s3.6-1.7 3.7-3.8v-.6z" fill="url(#M)"/><path d="m205.9 222.7c-.1-.3-.2-.6-.3-.8l-3.1-6.4-3.3 6.3c-.1.3-.3.5-.3.8l-.1.3c0 .2-.1.4-.1.6 0 2.1 1.4 3.9 3.6 3.9s3.6-1.7 3.7-3.8v-.6z" fill="url(#N)"/><path d="m224 206.4-12.5 21.1 3.5-15.7-9-3.2 12.5-21.1-3.5 16.2z" fill="url(#P)"/><path d="m187.1 195.3-.1-2.1c0-3.5 3.2-6.3 7.1-6.3 1 0 2 .2 2.9.6l4.8 1.9 1.8-4.8c1.6-4.3 5.7-7.1 10.1-7.1 6 0 10.8 5 10.8 11.1 0 2.5-.8 4.8-2.2 6.7l-.1.1h2.4c1.2-2 1.9-4.4 1.9-6.8 0-7.2-5.8-13.1-12.8-13.1-5.3 0-10.1 3.4-12 8.4l-1.1 2.9-2.9-1.1c-1.1-.5-2.4-.7-3.6-.7-5 0-9.1 3.7-9.1 8.4l.1 2h2z" fill="url(#Q)" opacity=".6"/><path d="m310 204c0 4.7-3 8.5-6.3 8.5h-45.9c-2.7 0-7.8-4-7.8-10 0-5 4.5-9.1 10-9.1.8 0 1.5.1 2.2.2v-.3c0-6.3 5.4-11.3 12.1-11.3 1.7 0 3.3.3 4.8.9 2.3-6.1 8-10.4 14.8-10.4 8.8 0 15.8 7.2 15.8 16.1 0 3.7-1.2 7-3.2 9.7 1.9 1 3.5 3.4 3.5 5.7z" fill="url(#R)"/><path d="m304 206.4-12.5 21.1 3.5-15.7-9-3.2 12.5-21.1-3.5 16.2z" fill="url(#S)"/><path d="m267.1 195.3-.1-2.1c0-3.5 3.2-6.3 7.1-6.3 1 0 2 .2 2.9.6l4.8 1.9 1.8-4.8c1.6-4.3 5.7-7.1 10.1-7.1 6 0 10.8 5 10.8 11.1 0 2.5-.8 4.8-2.2 6.7l-.1.1h2.4c1.2-2 1.9-4.4 1.9-6.8 0-7.2-5.8-13.1-12.8-13.1-5.3 0-10.1 3.4-12 8.4l-1.1 2.9-2.9-1.1c-1.1-.5-2.4-.7-3.6-.7-5 0-9.1 3.7-9.1 8.4l.1 2h2z" fill="url(#T)" opacity=".6"/><path d="m589 221.5c0 2.8-2.2 5-5 5s-5-2.2-5-5 2.2-5 5-5c2.7 0 5 2.2 5 5z" fill="url(#U)"/><path d="m605 221.5c0 2.8-2.2 5-5 5s-5-2.2-5-5 2.2-5 5-5 5 2.2 5 5z" fill="url(#V)"/><path d="m621 221.5c0 2.8-2.2 5-5 5s-5-2.2-5-5 2.2-5 5-5 5 2.2 5 5z" fill="url(#W)"/><path d="m630 205c0 4.7-3 8.5-6.3 8.5h-45.9c-2.7 0-7.8-4-7.8-10 0-5 4.5-9.1 10-9.1.8 0 1.5.1 2.2.2v-.3c0-6.3 5.4-11.3 12.1-11.3 1.7 0 3.3.3 4.8.9 2.3-6.1 8-10.4 14.8-10.4 8.8 0 15.8 7.2 15.8 16.1 0 3.7-1.2 7-3.2 9.7 1.9 1 3.5 3.4 3.5 5.7z" fill="url(#X)"/><path d="m587.1 196.3-.1-2.1c0-3.5 3.2-6.3 7.1-6.3 1 0 2 .2 2.9.6l4.8 1.9 1.8-4.8c1.6-4.3 5.7-7.1 10.1-7.1 6 0 10.8 5 10.8 11.1 0 2.5-.8 4.8-2.2 6.7l-.1.1h2.4c1.2-2 1.9-4.4 1.9-6.8 0-7.2-5.8-13.1-12.8-13.1-5.3 0-10.1 3.4-12 8.4l-1.1 2.9-2.9-1.1c-1.1-.5-2.4-.7-3.6-.7-5 0-9.1 3.7-9.1 8.4l.1 2h2z" fill="url(#Y)" opacity=".6"/><path d="m470 124c0 4.7-3 8.5-6.3 8.5h-45.9c-2.7 0-7.8-4-7.8-10 0-5 4.5-9.1 10-9.1.8 0 1.5.1 2.2.2v-.3c0-6.3 5.4-11.3 12.1-11.3 1.7 0 3.3.3 4.8.9 2.3-6.1 8.1-10.4 14.8-10.4 8.8 0 15.8 7.2 15.8 16.1 0 3.7-1.2 7-3.2 9.7 1.9 1 3.5 3.4 3.5 5.7z" fill="url(#Z)"/><path d="m450.2 142.3v3.5l1.3.7 1.3-.7v-3.5l2.5 1.5 1.3-.7v-1.4l-3.8-2.4v-5.1l4.4 2.6.1 4.5 1.2.7 1.3-.8-.1-2.9 3 1.7 1.3-.7v-.1.1-1.5l-3-1.7 2.6-1.5.1-1.5-1.3-.7-3.9 2.2-4.5-2.6 4.5-2.6 3.9 2.2 1.3-.7-.1-1.5-2.6-1.5 3-1.7v-1.4l-1.3-.8-3 1.7.1-2.9-1.3-.8-1.2.7-.1 4.5-4.4 2.6v-5.1l3.8-2.4v-1.4l-1.3-.7-2.5 1.5v-3.5l-1.3-.7-1.3.7v3.5l-2.5-1.5-1.3.7v1.4l3.8 2.4v5.1l-4.4-2.6-.1-4.5-1.2-.7-1.3.8.1 2.9-3-1.7-1.3.8v1.4l3 1.7-2.6 1.5-.1 1.5 1.3.7 3.9-2.2 4.5 2.6-4.5 2.6-3.9-2.2-1.3.7.1 1.5 2.6 1.5-3 1.7v1.5l1.3.7 3-1.7-.1 2.9 1.3.8 1.2-.7.1-4.5 4.4-2.6v5.1l-3.8 2.4v1.4l1.3.7z" fill="url(#aa)"/><path d="m424.9 142.7c-.1-.3-.2-.6-.3-.8l-3-6.4-3.2 6.3c-.1.3-.2.5-.3.8l-.1.3c0 .2-.1.4-.1.6 0 2.1 1.3 3.9 3.5 3.9 2.1 0 3.5-1.7 3.5-3.8z" fill="url(#ab)"/><path d="m434.9 142.7c-.1-.3-.2-.6-.3-.8l-3-6.4-3.2 6.3c-.1.3-.2.5-.3.8l-.1.3c0 .2-.1.4-.1.6 0 2.1 1.3 3.9 3.5 3.9 2.1 0 3.5-1.7 3.5-3.8z" fill="url(#ac)"/><path d="m427.1 115.3-.1-2.1c0-3.5 3.2-6.3 7.1-6.3 1 0 2 .2 2.9.6l4.8 1.9 1.8-4.8c1.6-4.3 5.7-7.1 10.1-7.1 6 0 10.8 5 10.8 11.1 0 2.5-.8 4.8-2.2 6.7l-.1.1h2.4c1.2-2 1.9-4.4 1.9-6.8 0-7.2-5.8-13.1-12.8-13.1-5.3 0-10.1 3.4-12 8.4l-1.1 2.9-2.9-1.1c-1.1-.5-2.4-.7-3.6-.7-5 0-9.1 3.7-9.1 8.4l.1 2h2z" fill="url(#ad)" opacity=".6"/><path d="m68.3 38.3h-11.4c-.2-1.8-.7-3.6-1.4-5.2l9.8-5.7c.8-.5 1.1-1.5.6-2.4-.5-.8-1.5-1.1-2.4-.6l-9.7 5.6c-1.1-1.5-2.3-2.8-3.8-3.8l5.7-9.8c.5-.8.2-1.9-.6-2.4s-1.9-.2-2.4.6l-5.7 9.9c-1.6-.7-3.4-1.2-5.2-1.4v-11.4c0-1-.8-1.7-1.7-1.7-1 0-1.7.8-1.7 1.7v11.3c-1.8.2-3.6.7-5.2 1.4l-5.7-9.8c-.5-.8-1.5-1.1-2.4-.6-.8.5-1.1 1.5-.6 2.4l5.7 9.8c-1.5 1.1-2.8 2.3-3.8 3.8l-9.8-5.7c-.8-.5-1.9-.2-2.4.6s-.2 1.9.6 2.4l9.8 5.7c-.7 1.6-1.2 3.4-1.4 5.2h-11.5c-1 0-1.7.8-1.7 1.7 0 1 .8 1.7 1.7 1.7h11.3c.2 1.8.7 3.6 1.4 5.2l-9.8 5.7c-.8.5-1.1 1.5-.6 2.4.5.8 1.5 1.1 2.4.6l9.8-5.7c1.1 1.5 2.3 2.8 3.8 3.8l-5.7 9.8c-.5.8-.2 1.9.6 2.4s1.9.2 2.4-.6l5.7-9.8c1.6.7 3.4 1.2 5.2 1.4v11.3c0 1 .8 1.7 1.7 1.7 1 0 1.7-.8 1.7-1.7v-11.2c1.8-.2 3.6-.7 5.2-1.4l5.7 9.8c.5.8 1.5 1.1 2.4.6.8-.5 1.1-1.5.6-2.4l-5.5-9.7c1.5-1.1 2.8-2.3 3.8-3.8l9.8 5.7c.8.5 1.9.2 2.4-.6s.2-1.9-.6-2.4l-9.9-5.7c.7-1.6 1.2-3.4 1.4-5.2h11.3c1 0 1.7-.8 1.7-1.7.1-1.1-.7-1.8-1.6-1.8z" fill="url(#ae)"/><path d="m54 40h-2c0-6.6-5.4-12-12-12s-12 5.4-12 12h-2c0-7.7 6.3-14 14-14s14 6.3 14 14z" fill="url(#af)" opacity=".45"/><path d="m221.9 35.4h-10.2c-.2-1.7-.6-3.2-1.3-4.7l8.8-5.1c.8-.4 1-1.4.6-2.1-.4-.8-1.4-1-2.1-.6l-8.8 5.1c-1-1.3-2.1-2.5-3.4-3.4l5.1-8.8c.4-.8.2-1.7-.6-2.1s-1.7-.2-2.1.6l-5.1 8.8c-1.5-.7-3-1.1-4.7-1.3v-10.2c0-.9-.7-1.6-1.6-1.6s-1.6.7-1.6 1.6v10.2c-1.7.2-3.2.6-4.7 1.3l-5.1-8.8c-.4-.8-1.4-1-2.1-.6-.8.4-1 1.4-.6 2.1l5.1 8.8c-1.3 1-2.5 2.1-3.4 3.4l-8.8-5.1c-.8-.4-1.7-.2-2.1.6s-.2 1.7.6 2.1l8.8 5.1c-.7 1.5-1.1 3-1.3 4.7h-10.2c-.9 0-1.6.7-1.6 1.6s.7 1.6 1.6 1.6h10.2c.2 1.7.6 3.2 1.3 4.7l-8.8 5.1c-.8.4-1 1.4-.6 2.1.4.8 1.4 1 2.1.6l8.8-5.1c1 1.3 2.1 2.5 3.4 3.4l-5.1 8.8c-.4.8-.2 1.7.6 2.1s1.7.2 2.1-.6l5.1-8.8c1.5.7 3 1.1 4.7 1.3v10.2c0 .9.7 1.6 1.6 1.6s1.6-.7 1.6-1.6v-10.2c1.7-.2 3.2-.6 4.7-1.3l5.1 8.8c.4.8 1.4 1 2.1.6.8-.4 1-1.4.6-2.1l-5.1-8.8c1.3-1 2.5-2.1 3.4-3.4l8.8 5.1c.8.4 1.7.2 2.1-.6s.2-1.7-.6-2.1l-8.8-5.1c.7-1.5 1.1-3 1.3-4.7h10.2c.9 0 1.6-.7 1.6-1.6s-.7-1.6-1.6-1.6z" fill="url(#ag)"/><path d="m230.5 63.6c0 3.5-2.2 6.4-4.7 6.4h-34.4c-2 0-5.9-3-5.9-7.5 0-3.8 3.3-6.8 7.5-6.8.6 0 1.1.1 1.7.2v-.2c0-4.7 4.1-8.5 9.1-8.5 1.3 0 2.5.2 3.6.7 1.7-4.5 6-7.8 11.1-7.8 6.6 0 11.9 5.4 11.9 12 0 2.7-.9 5.3-2.4 7.3 1.3.7 2.5 2.5 2.5 4.2z" fill="url(#ah)"/><path d="m199.6 58-.1-2.4c0-1.9 1.8-3.5 4.1-3.5.6 0 1.2.1 1.7.3l4.8 1.9 1.8-4.8c1-2.7 3.6-4.5 6.4-4.5a7 7 0 0 1 6.9 7c0 1.6-.5 3-1.4 4.3l-1.3 1.7h2.5l.4-.5c1.2-1.6 1.8-3.5 1.8-5.5 0-5-4-9-8.9-9-3.7 0-7 2.3-8.3 5.8l-1.1 2.9-2.9-1.1c-.8-.3-1.6-.5-2.5-.5-3.4 0-6.1 2.5-6.1 5.5l.1 2.4z" fill="url(#ai)" opacity=".6"/><path d="m208.5 37h-2c0-5.5-4.5-10-10-10s-10 4.5-10 10h-2c0-6.6 5.4-12 12-12s12 5.4 12 12z" fill="url(#aj)" opacity=".45"/><path d="m425.8 8.5c-1.2 0-1.7 1.4-.8 2.2 4.9 4.2 7.8 10.7 7.1 17.8-.9 9.2-8 16.7-17.1 18.2-2.1.4-4.2.4-6.1.1-1.1-.1-1.8 1.2-1.1 2.1 4.7 5.2 11.6 8.3 19.2 8 12.5-.6 22.7-11 23-23.5.4-13.7-10.6-24.9-24.2-24.9z" fill="url(#al)"/><path d="m425.8 8.5c-1.2 0-1.7 1.4-.8 2.2 4.9 4.2 7.8 10.7 7.1 17.8-.9 9.2-8 16.7-17.1 18.2-2.1.4-4.2.4-6.1.1-1.1-.1-1.8 1.2-1.1 2.1 4.7 5.2 11.6 8.3 19.2 8 12.5-.6 22.7-11 23-23.5.4-13.7-10.6-24.9-24.2-24.9z" fill="#c8c8c8"/><path d="m434.1 28.7c-.2 2.4-.9 4.8-1.9 6.9h2.2c.9-2.1 1.5-4.4 1.7-6.7.5-5.4-.7-10.7-3.4-15.3 2.9 1 5.5 2.7 7.7 4.9a20.2 20.2 0 0 1 5.5 17h2c.1-.8.2-1.5.2-2.3.2-6.1-2.1-11.8-6.3-16.1-3.1-3.2-7-5.3-11.3-6.2-.4-.1-.8.1-1.1.4-.2.4-.2.8 0 1.1 3.6 4.8 5.3 10.5 4.7 16.3z" fill="url(#am)" opacity=".6"/><path d="m472.5 63c0 4.7-3 8.5-6.3 8.5h-45.9c-2.7 0-7.8-4-7.8-10 0-5 4.5-9.1 10-9.1.8 0 1.5.1 2.2.2v-.3c0-6.3 5.4-11.3 12.1-11.3 1.7 0 3.3.3 4.8.9 2.3-6.1 8.1-10.4 14.8-10.4 8.8 0 15.8 7.2 15.8 16.1 0 3.7-1.2 7-3.2 9.7 1.9 1 3.5 3.4 3.5 5.7z" fill="url(#an)"/><path d="m429.6 54.3-.1-2.1c0-3.5 3.2-6.3 7.1-6.3 1 0 2 .2 2.9.6l4.8 1.9 1.8-4.8c1.6-4.3 5.7-7.1 10.1-7.1 6 0 10.8 5 10.8 11.1 0 2.5-.8 4.8-2.2 6.7l-.1.1h2.4c1.2-2 1.9-4.4 1.9-6.8 0-7.2-5.8-13.1-12.8-13.1-5.3 0-10.1 3.4-12 8.4l-1.1 2.9-2.9-1.1c-1.1-.5-2.4-.7-3.6-.7-5 0-9.1 3.7-9.1 8.4l.1 2h2z" fill="url(#ao)" opacity=".6"/><path d="m582.9 86c-1.1 0-1.5 1.3-.7 1.9 4.4 3.7 7 9.5 6.3 15.8-.8 8.1-7.1 14.8-15.2 16.2-1.9.3-3.7.3-5.5.1-1-.1-1.6 1.1-.9 1.8 4.2 4.6 10.3 7.4 17.1 7.1 11.2-.5 20.2-9.7 20.6-20.9.2-12-9.6-22-21.7-22z" fill="url(#ap)"/><path d="m582.9 86c-1.1 0-1.5 1.3-.7 1.9 4.4 3.7 7 9.5 6.3 15.8-.8 8.1-7.1 14.8-15.2 16.2-1.9.3-3.7.3-5.5.1-1-.1-1.6 1.1-.9 1.8 4.2 4.6 10.3 7.4 17.1 7.1 11.2-.5 20.2-9.7 20.6-20.9.2-12-9.6-22-21.7-22z" fill="#c8c8c8"/><path d="m590.2 103.9c-.2 2.2-.8 4.2-1.7 6.1h1.9a21.78 21.78 0 0 0 -1.5-19.5c2.6.9 4.9 2.4 6.8 4.4 3.4 3.5 5.2 8.1 5.1 13 0 .7-.1 1.4-.2 2.1h1.8c.1-.7.2-1.3.2-2 .1-5.4-1.8-10.5-5.6-14.3-2.8-2.8-6.2-4.7-10-5.5-.4-.1-.7.1-.9.4s-.2.7 0 1c3.2 4.1 4.6 9.2 4.1 14.3z" fill="url(#aq)" opacity=".6"/><path d="m633.5 132.5c0 4.7-3 8.5-6.3 8.5h-45.9c-2.7 0-7.8-4-7.8-10 0-5 4.5-9.1 10-9.1.8 0 1.5.1 2.2.2v-.3c0-6.3 5.4-11.3 12.1-11.3 1.7 0 3.3.3 4.8.9 2.3-6.1 8-10.4 14.8-10.4 8.8 0 15.8 7.2 15.8 16.1 0 3.7-1.2 7-3.2 9.7 1.9 1 3.5 3.4 3.5 5.7z" fill="url(#ar)"/><path d="m611.7 149.8v3.5l1.3.7 1.3-.7v-3.5l2.5 1.5 1.3-.7v-1.4l-3.8-2.4v-5.1l4.4 2.6.1 4.5 1.2.7 1.3-.8-.1-2.9 3 1.7 1.3-.7v-.1.1-1.5l-3-1.7 2.6-1.5.1-1.5-1.3-.7-3.9 2.2-4.5-2.6 4.5-2.6 3.9 2.2 1.3-.7-.1-1.5-2.6-1.5 3-1.7v-1.4l-1.3-.8-3 1.7.1-2.9-1.3-.8-1.2.7-.1 4.5-4.4 2.6v-5.1l3.8-2.4v-1.4l-1.3-.7-2.5 1.5v-3.5l-1.3-.7-1.3.7v3.5l-2.5-1.5-1.3.7v1.4l3.8 2.4v5.1l-4.4-2.6-.1-4.5-1.2-.7-1.3.8.1 2.9-3-1.7-1.3.8v1.4l3 1.7-2.6 1.5-.1 1.5 1.3.7 3.9-2.2 4.5 2.6-4.5 2.6-3.9-2.2-1.3.7.1 1.5 2.6 1.5-3 1.7v1.5l1.3.7 3-1.7-.1 2.9 1.3.8 1.2-.7.1-4.5 4.4-2.6v5.1l-3.8 2.4v1.4l1.3.7z" fill="url(#as)"/><path d="m590.6 123.8-.1-2.1c0-3.5 3.2-6.3 7.1-6.3 1 0 2 .2 2.9.6l4.8 1.9 1.8-4.8c1.6-4.3 5.7-7.1 10.1-7.1 6 0 10.8 5 10.8 11.1 0 2.5-.8 4.8-2.2 6.7l-.1.1h2.4c1.2-2 1.9-4.4 1.9-6.8 0-7.2-5.8-13.1-12.8-13.1-5.3 0-10.1 3.4-12 8.4l-1.1 2.9-2.9-1.1c-1.1-.5-2.4-.7-3.6-.7-5 0-9.1 3.7-9.1 8.4l.1 2h2z" fill="url(#at)" opacity=".6"/><path d="m342.9 85c-1.1 0-1.5 1.3-.7 1.9 4.4 3.7 7 9.5 6.3 15.8-.8 8.1-7.1 14.8-15.2 16.2-1.9.3-3.7.3-5.5.1-1-.1-1.6 1.1-.9 1.8 4.2 4.6 10.3 7.4 17.1 7.1 11.2-.5 20.2-9.7 20.6-20.9.2-12-9.6-22-21.7-22z" fill="url(#au)"/><path d="m342.9 85c-1.1 0-1.5 1.3-.7 1.9 4.4 3.7 7 9.5 6.3 15.8-.8 8.1-7.1 14.8-15.2 16.2-1.9.3-3.7.3-5.5.1-1-.1-1.6 1.1-.9 1.8 4.2 4.6 10.3 7.4 17.1 7.1 11.2-.5 20.2-9.7 20.6-20.9.2-12-9.6-22-21.7-22z" fill="#c8c8c8"/><path d="m350.2 102.9c-.2 2.2-.8 4.2-1.7 6.1h1.9a21.78 21.78 0 0 0 -1.5-19.5c2.6.9 4.9 2.4 6.8 4.4 3.4 3.5 5.2 8.1 5.1 13 0 .7-.1 1.4-.2 2.1h1.8c.1-.7.2-1.3.2-2 .1-5.4-1.8-10.5-5.6-14.3-2.8-2.8-6.2-4.7-10-5.5-.4-.1-.7.1-.9.4s-.2.7 0 1c3.2 4.1 4.6 9.2 4.1 14.3z" fill="url(#av)" opacity=".6"/><path d="m393.5 131.5c0 4.7-3 8.5-6.3 8.5h-45.9c-2.7 0-7.8-4-7.8-10 0-5 4.5-9.1 10-9.1.8 0 1.5.1 2.2.2v-.3c0-6.3 5.4-11.3 12.1-11.3 1.7 0 3.3.3 4.8.9 2.3-6.1 8-10.4 14.8-10.4 8.8 0 15.8 7.2 15.8 16.1 0 3.7-1.2 7-3.2 9.7 1.9 1 3.5 3.4 3.5 5.7z" fill="url(#aw)"/><path d="m347.4 150.2c-.1-.3-.2-.6-.3-.8l-3-6.4-3.2 6.3c-.1.3-.2.5-.3.8l-.1.3c0 .2-.1.4-.1.6 0 2.1 1.3 3.9 3.5 3.9 2.1 0 3.5-1.7 3.5-3.8z" fill="url(#ax)"/><path d="m357.4 150.2c-.1-.3-.2-.6-.3-.8l-3-6.4-3.2 6.3c-.1.3-.2.5-.3.8l-.1.3c0 .2-.1.4-.1.6 0 2.1 1.3 3.9 3.5 3.9 2.1 0 3.5-1.7 3.5-3.8z" fill="url(#ay)"/><path d="m371.7 148.8v3.5l1.3.7 1.3-.7v-3.5l2.5 1.5 1.3-.7v-1.4l-3.8-2.4v-5.1l4.4 2.6.1 4.5 1.2.7 1.3-.8-.1-2.9 3 1.7 1.3-.7v-.1.1-1.5l-3-1.7 2.6-1.5.1-1.5-1.3-.7-3.9 2.2-4.5-2.6 4.5-2.6 3.9 2.2 1.3-.7-.1-1.5-2.6-1.5 3-1.7v-1.4l-1.3-.8-3 1.7.1-2.9-1.3-.8-1.2.7-.1 4.5-4.4 2.6v-5.1l3.8-2.4v-1.4l-1.3-.7-2.5 1.5v-3.5l-1.3-.7-1.3.7v3.5l-2.5-1.5-1.3.7v1.4l3.8 2.4v5.1l-4.4-2.6-.1-4.5-1.2-.7-1.3.8.1 2.9-3-1.7-1.3.8v1.4l3 1.7-2.6 1.5-.1 1.5 1.3.7 3.9-2.2 4.5 2.6-4.5 2.6-3.9-2.2-1.3.7.1 1.5 2.6 1.5-3 1.7v1.5l1.3.7 3-1.7-.1 2.9 1.3.8 1.2-.7.1-4.5 4.4-2.6v5.1l-3.8 2.4v1.4l1.3.7z" fill="url(#az)"/><path d="m350.6 122.8-.1-2.1c0-3.5 3.2-6.3 7.1-6.3 1 0 2 .2 2.9.6l4.8 1.9 1.8-4.8c1.6-4.3 5.7-7.1 10.1-7.1 6 0 10.8 5 10.8 11.1 0 2.5-.8 4.8-2.2 6.7l-.1.1h2.4c1.2-2 1.9-4.4 1.9-6.8 0-7.2-5.8-13.1-12.8-13.1-5.3 0-10.1 3.4-12 8.4l-1.1 2.9-2.9-1.1c-1.1-.5-2.4-.7-3.6-.7-5 0-9.1 3.7-9.1 8.4l.1 2h2z" fill="url(#aA)" opacity=".6"/><path d="m207 150.2c-.1-.3-.2-.6-.3-.8l-3.1-6.4-3.3 6.3c-.1.3-.3.5-.3.8l-.1.3c0 .2-.1.4-.1.6 0 2.1 1.4 3.9 3.6 3.9s3.6-1.7 3.7-3.8v-.6z" fill="url(#aB)"/><path d="m217.4 150.2c-.1-.3-.2-.6-.3-.8l-3.1-6.4-3.3 6.3c-.1.3-.3.5-.3.8l-.1.3c0 .2-.1.4-.1.6 0 2.1 1.4 3.9 3.6 3.9s3.6-1.7 3.7-3.8v-.6z" fill="url(#aC)"/><path d="m182.9 85c-1.1 0-1.5 1.3-.7 1.9 4.4 3.7 7 9.5 6.3 15.8-.8 8.1-7.1 14.8-15.2 16.2-1.9.3-3.7.3-5.5.1-1-.1-1.6 1.1-.9 1.8 4.2 4.6 10.3 7.4 17.1 7.1 11.2-.5 20.2-9.7 20.6-20.9.2-12-9.6-22-21.7-22z" fill="url(#aD)"/><path d="m182.9 85c-1.1 0-1.5 1.3-.7 1.9 4.4 3.7 7 9.5 6.3 15.8-.8 8.1-7.1 14.8-15.2 16.2-1.9.3-3.7.3-5.5.1-1-.1-1.6 1.1-.9 1.8 4.2 4.6 10.3 7.4 17.1 7.1 11.2-.5 20.2-9.7 20.6-20.9.2-12-9.6-22-21.7-22z" fill="#c8c8c8"/><path d="m190.2 102.9c-.2 2.2-.8 4.2-1.7 6.1h1.9a21.78 21.78 0 0 0 -1.5-19.5c2.6.9 4.9 2.4 6.8 4.4 3.4 3.5 5.2 8.1 5.1 13 0 .7-.1 1.4-.2 2.1h1.8c.1-.7.2-1.3.2-2 .1-5.4-1.8-10.5-5.6-14.3-2.8-2.8-6.2-4.7-10-5.5-.4-.1-.7.1-.9.4s-.2.7 0 1c3.2 4.1 4.6 9.2 4.1 14.3z" fill="url(#aE)" opacity=".6"/><path d="m233.5 131.5c0 4.7-3 8.5-6.3 8.5h-45.9c-2.7 0-7.8-4-7.8-10 0-5 4.5-9.1 10-9.1.8 0 1.5.1 2.2.2v-.3c0-6.3 5.4-11.3 12.1-11.3 1.7 0 3.3.3 4.8.9 2.3-6.1 8-10.4 14.8-10.4 8.8 0 15.8 7.2 15.8 16.1 0 3.7-1.2 7-3.2 9.7 1.9 1 3.5 3.4 3.5 5.7z" fill="url(#aF)"/><path d="m196.6 150.2c-.1-.3-.2-.6-.3-.8l-3.1-6.4-3.3 6.3c-.1.3-.3.5-.3.8l-.1.3c0 .2-.1.4-.1.6 0 2.1 1.4 3.9 3.6 3.9s3.6-1.7 3.7-3.8v-.6z" fill="url(#aG)"/><path d="m190.6 122.8-.1-2.1c0-3.5 3.2-6.3 7.1-6.3 1 0 2 .2 2.9.6l4.8 1.9 1.8-4.8c1.6-4.3 5.7-7.1 10.1-7.1 6 0 10.8 5 10.8 11.1 0 2.5-.8 4.8-2.2 6.7l-.1.1h2.4c1.2-2 1.9-4.4 1.9-6.8 0-7.2-5.8-13.1-12.8-13.1-5.3 0-10.1 3.4-12 8.4l-1.1 2.9-2.9-1.1c-1.1-.5-2.4-.7-3.6-.7-5 0-9.1 3.7-9.1 8.4l.1 2h2z" fill="url(#aH)" opacity=".6"/><path d="m582.9 14.5c-.8 0-1.2 1-.6 1.5a14.65 14.65 0 0 1 -11.3 25.6c-.8-.1-1.3.9-.7 1.5 3.3 3.7 8.2 5.9 13.6 5.6 8.9-.4 16-7.8 16.3-16.6.1-9.7-7.6-17.6-17.3-17.6z" fill="#c8c8c8"/><path d="m588.5 28.6c-.2 1.8-.6 3.4-1.3 5h1.6c.6-1.5 1-3.1 1.2-4.8.4-3.9-.5-7.7-2.4-11 2.1.7 3.9 2 5.5 3.6 2.8 2.8 4.2 6.6 4.1 10.6 0 .6-.1 1.1-.2 1.7h1.5c.1-.5.1-1.1.1-1.6a15.99 15.99 0 0 0 -12.6-16.1c-.3-.1-.6.1-.8.3-.2.3-.1.6 0 .8 2.5 3.2 3.7 7.4 3.3 11.5z" fill="url(#aI)" opacity=".6"/><path d="m630 57c0 4.7-3 8.5-6.3 8.5h-45.9c-2.7 0-7.8-4-7.8-10 0-5 4.5-9.1 10-9.1.8 0 1.5.1 2.2.2v-.3c0-6.3 5.4-11.3 12.1-11.3 1.7 0 3.3.3 4.8.9 2.3-6.1 8-10.4 14.8-10.4 8.8 0 15.8 7.2 15.8 16.1 0 3.7-1.2 7-3.2 9.7 1.9 1 3.5 3.4 3.5 5.7z" fill="url(#aJ)"/><path d="m587.1 48.3-.1-2.1c0-3.5 3.2-6.3 7.1-6.3 1 0 2 .2 2.9.6l4.8 1.9 1.8-4.8c1.6-4.3 5.7-7.1 10.1-7.1 6 0 10.8 5 10.8 11.1 0 2.5-.8 4.8-2.2 6.7l-.1.1h2.4c1.2-2 1.9-4.4 1.9-6.8 0-7.2-5.8-13.1-12.8-13.1-5.3 0-10.1 3.4-12 8.4l-1.1 2.9-2.9-1.1c-1.1-.5-2.4-.7-3.6-.7-5 0-9.1 3.7-9.1 8.4l.1 2h2z" fill="url(#aK)" opacity=".6"/><path d="m268.3 10c-1.2 0-1.7 1.4-.8 2.2 4.9 4.2 7.8 10.7 7.1 17.8-.9 9.2-8 16.7-17.1 18.2-2.1.4-4.2.4-6.1.1-1.1-.1-1.8 1.2-1.1 2.1 4.7 5.2 11.6 8.3 19.2 8 12.5-.6 22.7-11 23-23.5.4-13.7-10.6-24.9-24.2-24.9z" fill="url(#aL)"/><path d="m268.3 10c-1.2 0-1.7 1.4-.8 2.2 4.9 4.2 7.8 10.7 7.1 17.8-.9 9.2-8 16.7-17.1 18.2-2.1.4-4.2.4-6.1.1-1.1-.1-1.8 1.2-1.1 2.1 4.7 5.2 11.6 8.3 19.2 8 12.5-.6 22.7-11 23-23.5.4-13.7-10.6-24.9-24.2-24.9z" fill="#c8c8c8"/><path d="m276.6 30.2c-.2 2.4-.9 4.8-1.9 6.9h2.2c.9-2.1 1.5-4.4 1.7-6.7.5-5.4-.7-10.7-3.4-15.3 2.9 1 5.5 2.7 7.7 4.9a20.2 20.2 0 0 1 5.5 17h2c.1-.8.2-1.5.2-2.3.2-6.1-2.1-11.8-6.3-16.1-3.1-3.2-7-5.3-11.3-6.2-.4-.1-.8.1-1.1.4-.2.4-.2.8 0 1.1 3.6 4.8 5.3 10.5 4.7 16.3z" fill="url(#aM)" opacity=".6"/><path d="m310 63.6c0 3.5-2.2 6.4-4.7 6.4h-34.4c-2 0-5.9-3-5.9-7.5 0-3.8 3.3-6.8 7.5-6.8.6 0 1.1.1 1.7.2v-.2c0-4.7 4.1-8.5 9.1-8.5 1.3 0 2.5.2 3.6.7 1.7-4.5 6-7.8 11.1-7.8 6.6 0 11.9 5.4 11.9 12 0 2.7-.9 5.3-2.4 7.3 1.3.7 2.5 2.5 2.5 4.2z" fill="url(#aN)"/><path d="m279.1 58-.1-2.4c0-1.9 1.8-3.5 4.1-3.5.6 0 1.2.1 1.7.3l4.8 1.9 1.8-4.8c1-2.7 3.6-4.5 6.4-4.5a7 7 0 0 1 6.9 7c0 1.6-.5 3-1.4 4.3l-1.3 1.7h2.5l.4-.5c1.2-1.6 1.8-3.5 1.8-5.5 0-5-4-9-8.9-9-3.7 0-7 2.3-8.3 5.8l-1.1 2.9-2.9-1.1c-.8-.3-1.6-.5-2.5-.5-3.4 0-6.1 2.5-6.1 5.5l.1 2.4z" fill="url(#aO)" opacity=".6"/><path d="m117 15.8c-1.2 0-1.7 1.4-.8 2.2 4.9 4.2 7.8 10.7 7.1 17.8-.9 9.2-8 16.7-17.1 18.2-2.1.4-4.2.4-6.1.1-1.1-.1-1.8 1.3-1.1 2.2 4.7 5.2 11.6 8.3 19.2 8 12.5-.6 22.7-11 23-23.5.5-13.8-10.5-25-24.2-25z" fill="#c8c8c8"/><path d="m125.3 36c-.2 2.4-.9 4.8-1.9 6.9h2.2c.9-2.1 1.5-4.4 1.7-6.7.5-5.4-.7-10.7-3.4-15.3 2.9 1 5.5 2.7 7.7 4.9a20.2 20.2 0 0 1 5.5 17h2c.1-.8.2-1.5.2-2.3.2-6.1-2.1-11.8-6.3-16.1-3.1-3.2-7-5.3-11.3-6.2-.4-.1-.8.1-1.1.4-.2.4-.2.8 0 1.1 3.7 4.8 5.3 10.5 4.7 16.3z" fill="url(#aP)" opacity=".6"/><path d="m537.5 40.3h-9.4c-.2-1.5-.6-2.9-1.2-4.2l8.2-4.6c.7-.4.9-1.3.5-1.9-.4-.7-1.3-.9-2-.5l-8.2 4.6c-.9-1.2-2-2.2-3.2-3.1l4.7-7.9c.4-.7.2-1.5-.5-1.9s-1.6-.2-2 .5l-4.7 7.9c-1.3-.6-2.8-1-4.3-1.1v-9.1c0-.8-.7-1.4-1.5-1.4s-1.5.6-1.5 1.4v9c-1.5.2-3 .5-4.3 1.1l-4.7-7.9c-.4-.7-1.3-.9-2-.5s-.9 1.3-.5 1.9l4.7 7.9c-1.2.9-2.3 1.9-3.2 3.1l-8.2-4.6c-.7-.4-1.6-.2-2 .5s-.2 1.5.5 1.9l8.2 4.6c-.6 1.3-1 2.7-1.2 4.2h-9.4c-.8 0-1.5.6-1.5 1.4s.7 1.4 1.5 1.4h9.4c.2 1.5.6 2.9 1.2 4.2l-.3.2h26.5l-.3-.2c.6-1.3 1-2.7 1.2-4.2h9.4c.8 0 1.5-.6 1.5-1.4.1-.7-.6-1.3-1.4-1.3z" fill="url(#aQ)"/><path d="m551 54c0 4.7-3 8.5-6.3 8.5h-45.9c-2.7 0-7.8-4-7.8-10 0-5 4.5-9.1 10-9.1.8 0 1.5.1 2.2.2v-.3c0-6.3 5.4-11.3 12.1-11.3 1.7 0 3.3.3 4.8.9 2.3-6.1 8-10.4 14.8-10.4 8.8 0 15.8 7.2 15.8 16.1 0 3.7-1.2 7-3.2 9.7 1.9 1 3.5 3.4 3.5 5.7z" fill="url(#aR)"/><path d="m508.1 45.3-.1-2.1c0-3.5 3.2-6.3 7.1-6.3 1 0 2 .2 2.9.6l4.8 1.9 1.8-4.8c1.6-4.3 5.7-7.1 10.1-7.1 6 0 10.8 5 10.8 11.1 0 2.5-.8 4.8-2.2 6.7l-.1.1h2.4c1.2-2 1.9-4.4 1.9-6.8 0-7.2-5.8-13.1-12.8-13.1-5.3 0-10.1 3.4-12 8.4l-1.1 2.9-2.9-1.1c-1.1-.5-2.4-.7-3.6-.7-5 0-9.1 3.7-9.1 8.4l.1 2h2z" fill="url(#aS)" opacity=".6"/><path d="m381 203.3v1.3c0 1.8 1.5 3.3 3.3 3.3h1.5c3.4 0 4.6-4.5 1.6-6.2 2-2.7 3.2-6.1 3.2-9.7 0-8.9-7.1-16.1-15.8-16.1-6.8 0-12.6 4.3-14.8 10.4-1.5-.6-3.1-.9-4.8-.9-6.7 0-12.1 5.1-12.1 11.3v.3c-.7-.1-1.5-.2-2.2-.2h-.7c-2 .1-1.8 3.1.2 3.1h37.3c1.8.1 3.3 1.6 3.3 3.4z" fill="url(#aT)"/><path d="m348.2 198.8-.1-2.1c0-3.5 3.2-6.3 7.1-6.3 1 0 2 .2 2.9.6l4.8 1.9 1.8-4.8c1.6-4.3 5.7-7.1 10.1-7.1 6 0 10.8 5 10.8 11.1 0 2.5-.8 4.8-2.2 6.7l-.1.1h2.4c1.2-2 1.9-4.4 1.9-6.8 0-7.2-5.8-13.1-12.8-13.1-5.3 0-10.1 3.4-12 8.4l-1.1 2.9-2.9-1.1c-1.1-.5-2.4-.7-3.6-.7-5 0-9.1 3.7-9.1 8.4l.1 2h2z" fill="url(#aU)" opacity=".6"/><g fill="#6cb8e0"><path d="m375 208h-42a2 2 0 0 1 -2-2c0-1.1.9-2 2-2h42a2 2 0 0 1 2 2 2 2 0 0 1 -2 2z"/><path d="m380 224h-42a2 2 0 0 1 -2-2c0-1.1.9-2 2-2h42a2 2 0 0 1 2 2 2 2 0 0 1 -2 2z"/><path d="m390 216h-42a2 2 0 0 1 -2-2c0-1.1.9-2 2-2h42a2 2 0 0 1 2 2 2 2 0 0 1 -2 2z"/><path d="m340 216h-10a2 2 0 0 1 -2-2c0-1.1.9-2 2-2h10a2 2 0 0 1 2 2 2 2 0 0 1 -2 2z"/></g><path d="m70 131.5c0 4.7-3 8.5-6.3 8.5h-45.9c-2.7 0-7.8-4-7.8-10 0-5 4.5-9.1 10-9.1.8 0 1.5.1 2.2.2v-.3c0-6.3 5.4-11.3 12.1-11.3 1.7 0 3.3.3 4.8.9 2.3-6.1 8-10.4 14.8-10.4 8.8 0 15.8 7.2 15.8 16.1 0 3.7-1.2 7-3.2 9.7 1.9 1 3.5 3.4 3.5 5.7z" fill="url(#aV)"/><path d="m27.2 122.8-.1-2.1c0-3.5 3.2-6.3 7.1-6.3 1 0 2 .2 2.9.6l4.8 1.9 1.8-4.8c1.6-4.3 5.7-7.1 10.1-7.1 6 0 10.8 5 10.8 11.1 0 2.5-.8 4.8-2.2 6.7l-.1.1h2.4c1.2-2 1.9-4.4 1.9-6.8 0-7.2-5.8-13.1-12.8-13.1-5.3 0-10.1 3.4-12 8.4l-1.1 2.9-2.9-1.1c-1.1-.5-2.4-.7-3.6-.7-5 0-9.1 3.7-9.1 8.4l.1 2h2z" fill="url(#aW)" opacity=".6"/><path d="m32.4 222.7c-.1-.3-.2-.6-.3-.8l-3.1-6.4-3.3 6.3c-.1.3-.3.5-.3.8l-.1.3c0 .2-.1.4-.1.6 0 2.1 1.4 3.9 3.6 3.9s3.6-1.7 3.7-3.8v-.6z" fill="url(#aX)"/><path d="m42.8 222.7c-.1-.3-.2-.6-.3-.8l-3.1-6.4-3.3 6.3c-.1.3-.3.5-.3.8l-.1.3c0 .2-.1.4-.1.6 0 2.1 1.4 3.9 3.6 3.9s3.6-1.7 3.7-3.8v-.6z" fill="url(#aY)"/><path d="m53.2 222.7c-.1-.3-.2-.6-.3-.8l-3.1-6.4-3.3 6.3c-.1.3-.3.5-.3.8l-.1.3c0 .2-.1.4-.1.6 0 2.1 1.4 3.9 3.6 3.9s3.6-1.7 3.7-3.8v-.6z" fill="url(#aZ)"/><path d="m70 204c0 4.7-3 8.5-6.3 8.5h-45.9c-2.7 0-7.8-4-7.8-10 0-5 4.5-9.1 10-9.1.8 0 1.5.1 2.2.2v-.3c0-6.3 5.4-11.3 12.1-11.3 1.7 0 3.3.3 4.8.9 2.3-6.1 8-10.4 14.8-10.4 8.8 0 15.8 7.2 15.8 16.1 0 3.7-1.2 7-3.2 9.7 1.9 1 3.5 3.4 3.5 5.7z" fill="url(#a0)"/><path d="m27.1 195.3-.1-2.1c0-3.5 3.2-6.3 7.1-6.3 1 0 2 .2 2.9.6l4.8 1.9 1.8-4.8c1.6-4.3 5.7-7.1 10.1-7.1 6 0 10.8 5 10.8 11.1 0 2.5-.8 4.8-2.2 6.7l-.1.1h2.4c1.2-2 1.9-4.4 1.9-6.8 0-7.2-5.8-13.1-12.8-13.1-5.3 0-10.1 3.4-12 8.4l-1.1 2.9-2.9-1.1c-1.1-.5-2.4-.7-3.6-.7-5 0-9.1 3.7-9.1 8.4l.1 2h2z" fill="url(#a1)" opacity=".6"/><path d="m113.1 227.7c-.1-.3-.2-.6-.3-.8l-3.1-6.4-3.3 6.3c-.1.3-.3.5-.3.8l-.1.3c0 .2-.1.4-.1.6 0 2.1 1.4 3.9 3.6 3.9s3.6-1.7 3.7-3.8v-.6z" fill="url(#a2)"/><path d="m123.5 227.7c-.1-.3-.2-.6-.3-.8l-3.1-6.4-3.3 6.3c-.1.3-.3.5-.3.8l-.1.3c0 .2-.1.4-.1.6 0 2.1 1.4 3.9 3.6 3.9s3.6-1.7 3.7-3.8v-.6z" fill="url(#a3)"/><path d="m133.9 227.7c-.1-.3-.2-.6-.3-.8l-3.1-6.4-3.3 6.3c-.1.3-.3.5-.3.8l-.1.3c0 .2-.1.4-.1.6 0 2.1 1.4 3.9 3.6 3.9s3.6-1.7 3.7-3.8v-.6z" fill="url(#a4)"/><path d="m108.1 217.7c-.1-.3-.2-.6-.3-.8l-3.1-6.4-3.2 6.3c-.1.3-.2.5-.3.8l-.1.3c0 .2-.1.4-.1.6 0 2.1 1.4 3.9 3.5 3.9 2.2 0 3.6-1.7 3.6-3.8z" fill="url(#a5)"/><path d="m118.3 217.7c-.1-.3-.2-.6-.3-.8l-3.1-6.4-3.2 6.3c-.1.3-.2.5-.3.8l-.1.3c0 .2-.1.4-.1.6 0 2.1 1.4 3.9 3.5 3.9 2.2 0 3.6-1.7 3.6-3.8z" fill="url(#a6)"/><path d="m128.6 217.7c-.1-.3-.2-.6-.3-.8l-3.1-6.4-3.2 6.3c-.1.3-.2.5-.3.8l-.1.3c0 .2-.1.4-.1.6 0 2.1 1.4 3.9 3.5 3.9 2.2 0 3.6-1.7 3.6-3.8z" fill="url(#a7)"/><path d="m138.9 217.7c-.1-.3-.2-.6-.3-.8l-3.1-6.4-3.2 6.3c-.1.3-.2.5-.3.8l-.1.3c0 .2-.1.4-.1.6 0 2.1 1.4 3.9 3.5 3.9 2.2 0 3.6-1.7 3.6-3.8z" fill="url(#a8)"/><path d="m150 199c0 4.7-3 8.5-6.3 8.5h-45.9c-2.7 0-7.8-4-7.8-10 0-5 4.5-9.1 10-9.1.8 0 1.5.1 2.2.2v-.3c0-6.3 5.4-11.3 12.1-11.3 1.7 0 3.3.3 4.8.9 2.3-6.1 8-10.4 14.8-10.4 8.8 0 15.8 7.2 15.8 16.1 0 3.7-1.2 7-3.2 9.7 1.9 1 3.5 3.4 3.5 5.7z" fill="url(#a9)"/><path d="m107.1 190.3-.1-2.1c0-3.5 3.2-6.3 7.1-6.3 1 0 2 .2 2.9.6l4.8 1.9 1.8-4.8c1.6-4.3 5.7-7.1 10.1-7.1 6 0 10.8 5 10.8 11.1 0 2.5-.8 4.8-2.2 6.7l-.1.1h2.4c1.2-2 1.9-4.4 1.9-6.8 0-7.2-5.8-13.1-12.8-13.1-5.3 0-10.1 3.4-12 8.4l-1.1 2.9-2.9-1.1c-1.1-.5-2.4-.7-3.6-.7-5 0-9.1 3.7-9.1 8.4l.1 2h2z" fill="url(#ba)" opacity=".6"/><path d="m470 204.5c0 4.7-3 8.5-6.3 8.5h-45.9c-2.7 0-7.8-4-7.8-10 0-5 4.5-9.1 10-9.1.8 0 1.5.1 2.2.2v-.3c0-6.3 5.4-11.3 12.1-11.3 1.7 0 3.3.3 4.8.9 2.3-6.1 8.1-10.4 14.8-10.4 8.8 0 15.8 7.2 15.8 16.1 0 3.7-1.2 7-3.2 9.7 1.9 1 3.5 3.4 3.5 5.7z" fill="url(#bb)"/><path d="m450.2 222.8v3.5l1.3.7 1.3-.7v-3.5l2.5 1.5 1.3-.7v-1.4l-3.8-2.4v-5.1l4.4 2.6.1 4.5 1.2.7 1.3-.8-.1-2.9 3 1.7 1.3-.7v-.1.1-1.5l-3-1.7 2.6-1.5.1-1.5-1.3-.7-3.9 2.2-4.5-2.6 4.5-2.6 3.9 2.2 1.3-.7-.1-1.5-2.6-1.5 3-1.7v-1.4l-1.3-.8-3 1.7.1-2.9-1.3-.8-1.2.7-.1 4.5-4.4 2.6v-5.1l3.8-2.4v-1.4l-1.3-.7-2.5 1.5v-3.5l-1.3-.7-1.3.7v3.5l-2.5-1.5-1.3.7v1.4l3.8 2.4v5.1l-4.4-2.6-.1-4.5-1.2-.7-1.3.8.1 2.9-3-1.7-1.3.8v1.4l3 1.7-2.6 1.5-.1 1.5 1.3.7 3.9-2.2 4.5 2.6-4.5 2.6-3.9-2.2-1.3.7.1 1.5 2.6 1.5-3 1.7v1.5l1.3.7 3-1.7-.1 2.9 1.3.8 1.2-.7.1-4.5 4.4-2.6v5.1l-3.8 2.4v1.4l1.3.7z" fill="url(#bc)"/><path d="m427.1 195.8-.1-2.1c0-3.5 3.2-6.3 7.1-6.3 1 0 2 .2 2.9.6l4.8 1.9 1.8-4.8c1.6-4.3 5.7-7.1 10.1-7.1 6 0 10.8 5 10.8 11.1 0 2.5-.8 4.8-2.2 6.7l-.1.1h2.4c1.2-2 1.9-4.4 1.9-6.8 0-7.2-5.8-13.1-12.8-13.1-5.3 0-10.1 3.4-12 8.4l-1.1 2.9-2.9-1.1c-1.1-.5-2.4-.7-3.6-.7-5 0-9.1 3.7-9.1 8.4l.1 2h2z" fill="url(#bd)" opacity=".6"/><path d="m68.12 276.22h-11.32a16.89 16.89 0 0 0 -1.4-5.2l9.81-5.67a1.74 1.74 0 0 0 -1.74-3l-9.82 5.62a16.8 16.8 0 0 0 -3.78-3.78l5.67-9.82a1.74 1.74 0 0 0 -3-1.74l-5.67 9.81a16.6 16.6 0 0 0 -5.2-1.39v-11.33a1.75 1.75 0 0 0 -3.5 0v11.33a16.6 16.6 0 0 0 -5.2 1.39l-5.67-9.81a1.74 1.74 0 1 0 -3 1.74l5.57 9.82a16.8 16.8 0 0 0 -3.78 3.78l-9.82-5.64a1.74 1.74 0 0 0 -1.74 3l9.81 5.67a16.89 16.89 0 0 0 -1.4 5.2h-11.32a1.75 1.75 0 0 0 0 3.5h11.32a16.89 16.89 0 0 0 1.4 5.2l-9.81 5.67a1.74 1.74 0 1 0 1.74 3l9.82-5.6a16.8 16.8 0 0 0 3.78 3.78l-5.64 9.82a1.74 1.74 0 1 0 3 1.74l5.67-9.81a16.89 16.89 0 0 0 5.2 1.4v11.32a1.75 1.75 0 0 0 3.5 0v-11.32a16.89 16.89 0 0 0 5.2-1.4l5.67 9.81a1.74 1.74 0 1 0 3-1.74l-5.6-9.82a16.8 16.8 0 0 0 3.78-3.78l9.82 5.67a1.74 1.74 0 0 0 1.74-3l-9.81-5.67a16.89 16.89 0 0 0 1.4-5.2h11.32a1.75 1.75 0 0 0 0-3.5z" fill="url(#e)"/><path d="m53.87 277.97h-2a12 12 0 0 0 -24 0h-2a14 14 0 0 1 28 0z" fill="url(#c)" opacity=".45"/><g fill="#b6ddf1" transform="translate(3.87 243.97)"><path d="m49.2 10.53c-11.02 2.79-18.53 7.32-43.35 3.97-2.65-.36-2.28-5.79.32-5.19 14.2 3.28 27.79 2.53 41.17-3.14 2.46-1.04 4.44 3.7 1.85 4.36zm3.6 12.67c-13.18 5.9-27.7 3.91-42.5 1.8-2.63-.38-2.47-4.35.11-3.68 13.6 3.54 27.78 3.92 41.88-2.5 2.43-1.1 2.95 3.3.52 4.38zm9.96-10.75c-21.1 8.5-30 10.21-41.7 9.08-2.65-.26-2.76-5.3-.1-5.08 12.23 1.05 23.5-1.36 40.74-8.94 2.48-1.1 3.53 3.94 1.06 4.94z"/><path d="m63.27 18.32c-14.3 4.7-28.78 6.66-42.43 2.8-2.56-.72-2.27-3.23.22-2.27 13.2 5.13 27.34 1.47 41.67-3.99 2.5-.94 3.08 2.63.54 3.46zm4.9 19.56c-43.9 21.74-21.95 10.87 0 0z"/><path d="m47.89 32.17c-14.19 1.85-28.65 1.33-42.54-2.27-2.58-.67-1.78-5.9.75-5.08 13 4.2 26.52 5.97 41.25 2.7 2.6-.58 3.18 4.3.54 4.65z"/></g><path d="m115.47 253.6a1.24 1.24 0 0 0 -.79 2.18 20.71 20.71 0 0 1 -10 36.1 21.1 21.1 0 0 1 -6.13.13 1.25 1.25 0 0 0 -1.06 2.1 24.25 24.25 0 1 0 17.98-40.52z" fill="#c8c8c8"/><path d="m123.76 273.84a22.35 22.35 0 0 1 -1.87 6.93h2.17a24.45 24.45 0 0 0 1.69-6.73 24.72 24.72 0 0 0 -3.39-15.25 20.28 20.28 0 0 1 13.39 19.63 22.6 22.6 0 0 1 -.22 2.34h2a21.42 21.42 0 0 0 .19-2.29 22.26 22.26 0 0 0 -17.52-22.38 1 1 0 0 0 -1 .44 1 1 0 0 0 0 1.14 22.73 22.73 0 0 1 4.56 16.17z" fill="url(#f)" opacity=".6"/><g fill="#b6ddf1" transform="translate(82.470376 243.84367)"><path d="m50.36 11.29c-11 2.78-18.52 7.31-43.34 3.96-2.64-.35-2.28-5.78.32-5.18 14.2 3.27 27.8 2.53 41.18-3.14 2.45-1.05 4.43 3.7 1.84 4.36zm3.62 12.67c-13.19 5.9-27.71 3.9-42.5 1.8-2.64-.39-2.47-4.36.1-3.69 13.6 3.55 27.78 3.92 41.88-2.5 2.43-1.1 2.96 3.3.52 4.39zm9.95-10.76c-21.1 8.5-30 10.22-41.7 9.08-2.65-.26-2.76-5.3-.1-5.08 12.23 1.05 23.51-1.36 40.74-8.93 2.49-1.1 3.53 3.93 1.06 4.93z"/><path d="m64.45 19.08c-14.31 4.69-28.79 6.65-42.44 2.8-2.56-.72-2.26-3.24.22-2.27 13.2 5.13 27.34 1.46 41.68-4 2.49-.94 3.07 2.64.54 3.47zm4.89 19.56c-43.9 21.73-21.95 10.87 0 0z"/><path d="m49.06 32.92c-14.18 1.86-28.65 1.34-42.54-2.27-2.58-.67-1.78-5.9.76-5.07 13 4.2 26.52 5.96 41.24 2.7 2.6-.59 3.18 4.3.54 4.64z"/></g><path d="m231.45 281.95c0 4.7-3 8.53-6.3 8.53h-45.89c-2.73 0-7.8-4-7.8-10 0-5 4.45-9.1 10-9.1a11 11 0 0 1 2.22.23v-.32c0-6.25 5.42-11.33 12.11-11.33a12.69 12.69 0 0 1 4.76.92 15.83 15.83 0 0 1 30.68 5.7 16.09 16.09 0 0 1 -3.23 9.7 7 7 0 0 1 3.45 5.67z" fill="url(#i)"/><path d="m188.51 273.33-.06-2.07c0-3.5 3.2-6.32 7.1-6.32a7.68 7.68 0 0 1 2.9.54l4.75 1.92 1.8-4.8a10.82 10.82 0 0 1 21 3.94 11.07 11.07 0 0 1 -2.23 6.7l-.06.09h2.41a13.09 13.09 0 0 0 -10.97-19.85 12.94 12.94 0 0 0 -12 8.42l-1.09 2.88-2.86-1.15a9.75 9.75 0 0 0 -3.65-.7c-5 0-9.1 3.74-9.1 8.36l.06 2z" fill="url(#g)" opacity=".6"/><path d="m217.65 300.3c-.1-.3-.2-.6-.3-.8l-3.1-6.4-3.3 6.3c-.1.3-.3.5-.3.8l-.1.3c0 .2-.1.4-.1.6 0 2.1 1.4 3.9 3.6 3.9s3.6-1.7 3.7-3.8v-.6z" fill="url(#a)"/></svg>