<?xml version="1.0" encoding="UTF-8" standalone="no"?>
<!-- Created with Inkscape (http://www.inkscape.org/) -->

<svg
   width="200mm"
   height="200mm"
   viewBox="0 0 200 200"
   version="1.1"
   id="svg5"
   inkscape:export-filename="G:\Theme\Rainmeter\git-repo\weather\rainmeter-weather-zelda-style\Ventusky_with_BaiduIcon\temperatureback60.png"
   inkscape:export-xdpi="7.6199999"
   inkscape:export-ydpi="7.6199999"
   sodipodi:docname="temperature.svg"
   inkscape:version="1.2-dev (03e16dd8, 2021-09-24)"
   xmlns:inkscape="http://www.inkscape.org/namespaces/inkscape"
   xmlns:sodipodi="http://sodipodi.sourceforge.net/DTD/sodipodi-0.dtd"
   xmlns="http://www.w3.org/2000/svg"
   xmlns:svg="http://www.w3.org/2000/svg">
  <sodipodi:namedview
     id="namedview7"
     pagecolor="#ffffff"
     bordercolor="#000000"
     borderopacity="0.25"
     inkscape:pageshadow="2"
     inkscape:pageopacity="0.0"
     inkscape:pagecheckerboard="0"
     inkscape:blackoutopacity="0.0"
     inkscape:document-units="mm"
     showgrid="false"
     width="200mm"
     inkscape:zoom="1"
     inkscape:cx="99"
     inkscape:cy="406"
     inkscape:window-width="1920"
     inkscape:window-height="1017"
     inkscape:window-x="-8"
     inkscape:window-y="-8"
     inkscape:window-maximized="1"
     inkscape:current-layer="g58781" />
  <defs
     id="defs2" />
  <g
     inkscape:groupmode="layer"
     id="layer7"
     inkscape:label="whiteback"
     style="display:none">
    <rect
       style="fill:#ffffff;fill-opacity:1;stroke:#8aaa98;stroke-width:0.264999"
       id="rect96302"
       width="201.40294"
       height="205.1201"
       x="0"
       y="-1.0137731" />
  </g>
  <g
     inkscape:label="图层 1"
     inkscape:groupmode="layer"
     id="layer1"
     style="display:inline"
     sodipodi:insensitive="true">
    <circle
       style="fill:#000000;fill-opacity:0.344961;fill-rule:evenodd;stroke:none;stroke-width:1.831;stroke-miterlimit:4;stroke-dasharray:none;stroke-opacity:1"
       id="path1260"
       cx="100"
       cy="100"
       r="90" />
  </g>
  <g
     inkscape:groupmode="layer"
     id="layer9"
     inkscape:label="环1"
     style="display:none">
    <path
       id="path4457"
       style="display:inline;fill:#000000;fill-opacity:0.744186;fill-rule:evenodd;stroke:none;stroke-width:6.18716;stroke-miterlimit:4;stroke-dasharray:none;stroke-opacity:1"
       d="M 377.95312,73.832031 A 304.12143,304.12143 0 0 0 73.832031,377.95312 304.12143,304.12143 0 0 0 377.95312,682.07422 304.12143,304.12143 0 0 0 682.07422,377.95312 304.12143,304.12143 0 0 0 377.95312,73.832031 Z m 0,124.228519 A 179.89191,179.89191 0 0 1 557.84375,377.95312 179.89191,179.89191 0 0 1 377.95312,557.84375 179.89191,179.89191 0 0 1 198.06055,377.95312 179.89191,179.89191 0 0 1 377.95312,198.06055 Z"
       transform="scale(0.26458333)" />
  </g>
  <g
     inkscape:groupmode="layer"
     id="g4210"
     inkscape:label="scale"
     style="display:none">
    <path
       id="path4208"
       style="fill:#000000;fill-opacity:0.744186;fill-rule:evenodd;stroke:none;stroke-width:6.18716;stroke-miterlimit:4;stroke-dasharray:none;stroke-opacity:1"
       d="M 375.53516,74.005859 A 304.12143,304.12143 0 0 0 271.59375,93.863281 c 15.66366,41.713949 29.12043,76.753659 43.80859,115.523439 a 179.89191,179.89191 0 0 1 60.99805,-11.18945 c -0.30263,-41.66393 -0.40766,-79.42045 -0.86523,-124.191411 z m 5.09179,0.01758 c -0.46404,44.735521 -0.57367,82.437081 -0.88476,124.093751 a 179.89191,179.89191 0 0 1 61.08593,11.37109 c 14.70072,-38.78496 28.15817,-73.80573 43.82227,-115.499998 A 304.12143,304.12143 0 0 0 380.62695,74.023439 Z M 266.83008,95.640625 a 304.12143,304.12143 0 0 0 -90.46289,54.902345 c 29.84841,33.43228 55.22281,61.43306 83.09179,92.46484 a 179.89191,179.89191 0 0 1 52.91211,-32.20703 C 297.09297,172.19516 283.38861,137.11779 266.83008,95.640625 Z m 222.58984,0.126953 C 472.90331,137.12292 459.26094,172.04149 443.98047,210.62305 a 179.89191,179.89191 0 0 1 53.09375,32.64843 c 27.86487,-31.02092 53.15883,-58.91755 82.93555,-92.25781 A 304.12143,304.12143 0 0 0 489.41992,95.767578 Z m -316.6543,58.376952 a 304.12143,304.12143 0 0 0 -64.19726,84.1875 c 39.81424,20.34337 73.49252,37.23546 110.61328,56.06641 a 179.89191,179.89191 0 0 1 37.91602,-49.0293 C 228.81595,214.79291 203.2804,186.93766 172.76562,154.14453 Z m 410.85547,0.48047 c -30.38731,32.64766 -55.7565,60.31968 -84.02929,90.86719 a 179.89191,179.89191 0 0 1 37.99414,49.71093 c 37.11325,-18.82428 70.62315,-35.62049 110.29297,-55.88085 A 304.12143,304.12143 0 0 0 583.62109,154.625 Z m -477.49414,88.17773 a 304.12143,304.12143 0 0 0 -29.9082,101.77149 c 44.55926,4.59504 82.13354,8.18707 123.68164,12.35156 a 179.89191,179.89191 0 0 1 17.86914,-59.49805 c -37.45446,-18.31207 -71.33107,-35.06378 -111.64258,-54.625 z m 544.20313,1.00977 c -40.12475,19.46467 -73.75536,36.09398 -111.21485,54.39258 a 179.89191,179.89191 0 0 1 17.60547,60.32617 c 41.48314,-4.15634 78.77638,-7.71054 123.08594,-12.27148 A 304.12143,304.12143 0 0 0 650.33008,243.8125 Z M 75.855469,349.66211 A 304.12143,304.12143 0 0 0 73.832031,377.95312 304.12143,304.12143 0 0 0 84.408203,455.625 C 127.64967,443.80367 163.99721,433.57374 204.33984,422.42383 a 179.89191,179.89191 0 0 1 -6.27929,-44.47071 179.89191,179.89191 0 0 1 1.54687,-17.69335 c -41.5537,-3.54476 -79.13733,-6.92249 -123.751951,-10.59766 z m 604.318361,1.70703 c -44.35445,3.64852 -81.6126,6.99828 -123.13477,10.52539 a 179.89191,179.89191 0 0 1 0.80469,16.05859 179.89191,179.89191 0 0 1 -6.86133,46.64454 c 40.46852,11.18831 76.79233,21.42054 120.03125,33.25 a 304.12143,304.12143 0 0 0 11.06055,-79.89454 304.12143,304.12143 0 0 0 -1.90039,-26.58398 z m -474.96485,74.29883 c -40.2446,11.77127 -76.63414,22.23295 -119.710933,34.96484 a 304.12143,304.12143 0 0 0 47.042973,95.67578 c 35.96302,-26.57924 66.05947,-49.17427 99.625,-74.12304 a 179.89191,179.89191 0 0 1 -26.95704,-56.51758 z m 344.89844,2.19726 a 179.89191,179.89191 0 0 1 -27.96289,56.59571 c 33.60363,24.98221 63.63391,47.53847 99.54297,74.08789 a 304.12143,304.12143 0 0 0 48.23242,-95.66797 c -43.07229,-12.73581 -79.40847,-23.18403 -119.8125,-35.01563 z m -316.00781,57.08204 c -33.15209,25.42373 -63.10753,48.16938 -98.49023,75.45898 a 304.12143,304.12143 0 0 0 77.82812,73.31836 c 24.03693,-37.94268 44.03098,-70.03232 66.4668,-105.6543 a 179.89191,179.89191 0 0 1 -45.80469,-43.12304 z m 286.10156,2.29101 a 179.89191,179.89191 0 0 1 -46.80469,42.6543 c 22.4004,35.57551 42.31147,67.55063 66.26954,105.38281 a 304.12143,304.12143 0 0 0 78.94336,-72.61328 c -35.32829,-27.25445 -65.1945,-49.9372 -98.40821,-75.42383 z m -237.52148,42.77539 c -21.81126,35.8226 -41.55844,67.89802 -64.73438,106.19141 a 304.12143,304.12143 0 0 0 99.70508,39.07031 c 8.64373,-43.74096 15.62787,-80.5542 23.63281,-121.61914 a 179.89191,179.89191 0 0 1 -58.60351,-23.64258 z m 187.92969,1.83008 a 179.89191,179.89191 0 0 1 -59.26954,22.69141 c 7.99225,41.03414 14.95798,77.78859 23.58204,121.46679 a 304.12143,304.12143 0 0 0 100.2207,-38.25781 c -23.09535,-38.17186 -42.74663,-70.0966 -64.5332,-105.90039 z m -126.03907,22.69336 c -7.37082,41.14615 -14.15593,77.96459 -21.89648,121.83203 a 304.12143,304.12143 0 0 0 55.27929,5.70508 304.12143,304.12143 0 0 0 51.93946,-4.97852 c -7.73516,-43.87309 -14.51284,-80.67603 -21.88477,-121.88086 a 179.89191,179.89191 0 0 1 -30.05469,2.62891 179.89191,179.89191 0 0 1 -33.38281,-3.30664 z"
       transform="scale(0.26458333)" />
  </g>
  <g
     inkscape:groupmode="layer"
     id="layer4"
     inkscape:label="color"
     style="display:none">
    <path
       style="fill:#15cbea;fill-opacity:1;stroke:none;stroke-width:1.73637;stroke-miterlimit:4;stroke-dasharray:none;stroke-opacity:1"
       d="m 84.78283,178.67862 c -5.436455,-1.08664 -11.611687,-2.94863 -15.880488,-4.7884 -4.105429,-1.76935 -7.178165,-3.37344 -7.07473,-3.6933 0.05768,-0.17836 3.513561,-6.65715 7.679738,-14.3973 l 7.574864,-14.073 1.553163,0.80167 c 3.320574,1.71391 8.943346,3.63133 12.295222,4.1928 0.808222,0.13539 1.529546,0.33259 1.602943,0.43823 0.230721,0.33208 -4.290846,32.1097 -4.568336,32.10632 -0.143783,-0.002 -1.575851,-0.26591 -3.182376,-0.58702 z"
       id="path5133" />
    <path
       style="fill:#15cbea;fill-opacity:1;stroke:none;stroke-width:1.73637;stroke-miterlimit:4;stroke-dasharray:none;stroke-opacity:1"
       d="m 57.320955,167.95175 c -4.06891,-2.62703 -6.79681,-4.72573 -10.621365,-8.17151 -3.74964,-3.37828 -7.993208,-7.95271 -7.681086,-8.27996 0.10784,-0.11307 5.655305,-4.86791 12.327701,-10.56632 l 12.131632,-10.36074 1.193199,1.26593 c 3.143398,3.33501 7.861397,7.2481 10.769919,8.93253 l 0.61853,0.35822 -6.762566,12.15828 c -7.678437,13.80491 -9.151591,16.43444 -9.205073,16.43075 -0.0208,-0.002 -1.267696,-0.79666 -2.770891,-1.76718 z"
       id="path5204" />
    <path
       style="fill:#15cbea;fill-opacity:1;stroke:none;stroke-width:1.73637;stroke-miterlimit:4;stroke-dasharray:none;stroke-opacity:1"
       d="m 35.439985,147.36498 c -2.788013,-3.7942 -5.081661,-7.50167 -7.079312,-11.44303 -1.536383,-3.03128 -4.348383,-9.68111 -4.163898,-9.8468 0.0499,-0.0448 6.850163,-2.4512 15.11171,-5.34753 8.261544,-2.89633 15.154001,-5.32546 15.316572,-5.39807 0.189743,-0.0847 0.678547,0.80969 1.365119,2.49796 1.328284,3.26622 3.314956,6.91198 5.273295,9.67706 l 1.496346,2.11276 -7.857619,6.53723 c -12.537285,10.43053 -17.058685,14.15943 -17.176377,14.16575 -0.06044,0.003 -1.089069,-1.32666 -2.285836,-2.95533 z"
       id="path5275" />
    <path
       style="fill:#15cbea;fill-opacity:1;stroke:none;stroke-width:1.73637;stroke-miterlimit:4;stroke-dasharray:none;stroke-opacity:1"
       d="m 22.988587,122.27833 c -2.22917,-7.66787 -3.372511,-15.90579 -3.171155,-22.848555 l 0.07196,-2.481343 2.176331,0.06025 c 10.949522,0.303113 30.279042,0.969773 30.365342,1.047278 0.05969,0.05361 0.06594,1.164868 0.01386,2.46947 -0.111152,2.78502 0.425623,7.03018 1.331978,10.53413 0.341321,1.31955 0.686171,2.54602 0.766327,2.72549 0.109117,0.2443 -3.71641,1.62246 -15.222702,5.484 -8.452641,2.83673 -15.443626,5.16139 -15.535519,5.1659 -0.0919,0.004 -0.450283,-0.96597 -0.796425,-2.15662 z"
       id="path5346" />
    <path
       style="fill:#15cbea;fill-opacity:1;stroke:none;stroke-width:1.73637;stroke-miterlimit:4;stroke-dasharray:none;stroke-opacity:1"
       d="m 35.452727,96.076671 c -8.337186,-0.400424 -15.22991,-0.792728 -15.317161,-0.871786 -0.08725,-0.07906 -0.04619,-1.32505 0.09125,-2.768873 0.693342,-7.283573 2.707107,-15.646742 5.209949,-21.636932 l 1.031311,-2.468286 14.944455,6.355187 14.944455,6.355186 -0.82309,2.216288 c -1.162976,3.131485 -2.048198,6.666681 -2.504148,10.00047 -0.215646,1.576734 -0.421,3.009681 -0.456346,3.184328 -0.09081,0.448683 -0.227869,0.445759 -17.120678,-0.365582 z"
       id="path5417" />
    <path
       style="fill:#15cbea;fill-opacity:1;stroke:none;stroke-width:1.73637;stroke-miterlimit:4;stroke-dasharray:none;stroke-opacity:1"
       d="m 43.744321,74.206796 c -7.148326,-3.153034 -13.83248,-6.099431 -14.853673,-6.54755 l -1.856716,-0.814766 1.494572,-2.969855 c 2.968875,-5.899433 6.99426,-11.84712 11.525286,-17.029126 l 2.579749,-2.950392 0.591852,0.625655 c 0.325517,0.344111 5.58438,5.465254 11.686363,11.380321 L 66.006268,66.65575 63.99236,68.982588 c -2.253314,2.60345 -4.30986,5.603071 -6.042155,8.812918 -0.638359,1.18284 -1.171511,2.149147 -1.184787,2.147345 -0.01326,-0.0017 -5.87277,-2.583021 -13.021097,-5.736055 z"
       id="path5488" />
    <path
       style="fill:#f89852;fill-opacity:1;stroke:none;stroke-width:1.73637;stroke-miterlimit:4;stroke-dasharray:none;stroke-opacity:1"
       d="m 162.22245,113.23422 c -8.43704,-1.87167 -15.38805,-3.44612 -15.44669,-3.49879 -0.0586,-0.0527 0.0965,-1.40018 0.34474,-2.99449 0.53915,-3.46259 0.75202,-8.423328 0.48609,-11.327638 l -0.19274,-2.104862 4.86288,-0.687041 c 17.46257,-2.467153 26.9498,-3.740809 27.06877,-3.633967 0.0755,0.06781 0.33688,1.628256 0.58082,3.467646 0.69691,5.255047 0.50703,12.350342 -0.51329,19.179592 -0.66673,4.46256 -0.81676,4.99659 -1.4047,4.99999 -0.24519,0.001 -7.34884,-1.52878 -15.78588,-3.40044 z"
       id="path5697" />
    <path
       style="fill:#f89852;fill-opacity:1;stroke:none;stroke-width:1.73637;stroke-miterlimit:4;stroke-dasharray:none;stroke-opacity:1"
       d="m 165.67108,143.19339 c -0.71664,-0.47755 -6.69646,-4.44775 -13.2885,-8.82268 -6.59204,-4.37492 -12.09108,-8.0442 -12.22009,-8.15394 -0.13408,-0.11407 0.32953,-1.17793 1.08237,-2.48372 1.69782,-2.94487 3.57711,-7.35876 4.43474,-10.41589 0.6527,-2.32662 0.69973,-2.40756 1.30967,-2.2537 0.34796,0.0878 7.15969,1.68585 15.13717,3.55127 7.97749,1.86542 14.87052,3.48716 15.31786,3.60387 l 0.81334,0.21221 -0.8276,2.89542 c -2.08462,7.29323 -5.18783,14.27639 -9.22469,20.75834 l -1.2313,1.97709 z"
       id="path6044" />
    <path
       style="fill:#f89852;fill-opacity:1;stroke:none;stroke-width:1.73637;stroke-miterlimit:4;stroke-dasharray:none;stroke-opacity:1"
       d="m 146.17688,165.03859 c -0.21813,-0.24562 -17.78153,-25.09695 -18.37026,-25.99299 -0.10478,-0.15948 0.39475,-0.69737 1.20574,-1.29834 2.8116,-2.08348 7.50955,-6.88851 9.63011,-9.84959 l 0.59373,-0.82907 13.27238,9.0856 c 7.29981,4.99708 13.30584,9.16348 13.34673,9.25867 0.15909,0.3703 -3.23345,4.77556 -6.39917,8.30941 -3.41169,3.80843 -7.00886,7.1724 -10.69139,9.99826 -1.15074,0.88304 -2.14387,1.6083 -2.20694,1.61169 -0.0631,0.003 -0.2345,-0.12875 -0.38093,-0.29364 z"
       id="path6115" />
    <path
       style="fill:#f89852;fill-opacity:1;stroke:none;stroke-width:1.73637;stroke-miterlimit:4;stroke-dasharray:none;stroke-opacity:1"
       d="m 119.29436,177.25741 c -0.3624,-1.2291 -7.26072,-28.95199 -7.45254,-29.95015 l -0.21041,-1.09493 1.5748,-0.41245 c 2.91432,-0.76328 6.73557,-2.38408 10.12867,-4.29613 3.30248,-1.86098 3.37813,-1.88939 3.72666,-1.39928 0.54484,0.76616 13.00933,18.96181 15.59335,22.76313 1.62809,2.39508 2.21582,3.45046 2.04759,3.67684 -0.34031,0.45795 -7.04616,4.33643 -9.64082,5.57598 -4.08321,1.95067 -9.40832,3.95604 -13.49197,5.08089 l -2.11972,0.58388 z"
       id="path6186" />
    <path
       style="fill:#ffffff;fill-opacity:0.53876;stroke:none;stroke-width:1.73637;stroke-miterlimit:4;stroke-dasharray:none;stroke-opacity:1"
       d="M 56.165159,55.170358 C 50.323848,49.334149 45.151068,44.146949 44.67009,43.643243 l -0.874506,-0.915834 1.623973,-1.504951 c 5.286688,-4.899229 13.125238,-10.240046 19.29005,-13.143329 l 1.910106,-0.899554 0.244465,0.539494 c 0.134456,0.296721 2.830911,6.167272 5.992131,13.045668 7.708528,16.772757 7.395913,16.060527 7.059143,16.08279 -0.48863,0.0323 -5.068124,2.625585 -6.867593,3.888996 -1.438354,1.009869 -3.751896,2.860766 -5.759814,4.608004 -0.490158,0.426523 -0.759596,0.180064 -11.122886,-10.174169 z"
       id="path6934" />
    <path
       style="fill:#ffffff;fill-opacity:0.53876;stroke:none;stroke-width:1.73637;stroke-miterlimit:4;stroke-dasharray:none;stroke-opacity:1"
       d="M 80.803243,55.225806 C 80.592381,54.787981 77.690232,48.244313 74.354019,40.68432 71.017809,33.124327 68.23533,26.860334 68.170734,26.764335 c -0.169281,-0.251569 1.290992,-0.913417 4.942932,-2.240315 5.866127,-2.131401 12.523321,-3.675017 19.057466,-4.41889 l 2.924811,-0.332972 0.874554,16.288059 0.874554,16.288058 -2.43334,0.308134 c -3.371783,0.426968 -7.42945,1.381045 -10.41392,2.448624 -1.385551,0.495627 -2.584879,0.904666 -2.665172,0.908978 -0.0803,0.0043 -0.318515,-0.35038 -0.529376,-0.788205 z"
       id="path7074" />
    <path
       style="fill:#ffffff;fill-opacity:0.53876;stroke:none;stroke-width:1.73637;stroke-miterlimit:4;stroke-dasharray:none;stroke-opacity:1"
       d="m 112.41163,53.934343 c -2.94394,-0.821187 -7.37796,-1.461741 -10.9363,-1.579905 L 98.095707,52.242211 97.678724,44.466286 C 97.449313,40.189534 97.131257,32.867017 96.97193,28.194028 l -0.289682,-8.496344 2.661216,0.02493 c 5.791956,0.05425 11.481536,0.636798 16.444506,1.68372 3.46004,0.729881 7.85117,1.91409 8.02493,2.164174 0.11921,0.171583 -2.93988,9.971157 -9.18496,29.423343 l -0.45928,1.430562 z"
       id="path7145" />
    <path
       style="fill:#ffffff;fill-opacity:0.53876;stroke:none;stroke-width:1.73637;stroke-miterlimit:4;stroke-dasharray:none;stroke-opacity:1"
       d="m 129.04269,62.135678 c -1.31335,-1.420088 -8.19095,-5.312654 -11.57969,-6.553839 -1.10858,-0.406036 -2.05,-0.758327 -2.09203,-0.782866 -0.0576,-0.0336 6.5996,-20.067582 9.8758,-29.720074 l 0.36754,-1.082872 3.58524,1.382125 c 4.4197,1.703815 7.98426,3.451984 12.38022,6.071641 3.39645,2.02402 7.95953,5.220241 8.14552,5.705545 0.0913,0.238242 -19.73071,25.072388 -20.16217,25.260314 -0.10253,0.04466 -0.33672,-0.08133 -0.52043,-0.279974 z"
       id="path7216" />
    <path
       style="fill:#ffffff;fill-opacity:0.53876;stroke:none;stroke-width:1.73637;stroke-miterlimit:4;stroke-dasharray:none;stroke-opacity:1"
       d="m 139.71357,73.5189 c -1.90063,-2.850295 -4.45193,-5.866162 -7.04048,-8.32247 l -2.11676,-2.00862 8.78828,-10.594109 c 4.83355,-5.826762 9.50993,-11.447029 10.39195,-12.489483 l 1.60369,-1.895373 2.95914,2.781096 c 3.75521,3.529265 6.87261,7.000199 9.73144,10.83503 2.55677,3.42965 5.07957,7.271905 4.98964,7.599262 -0.0332,0.121005 -6.31909,3.824418 -13.96853,8.229807 l -13.90809,8.009799 z"
       id="path7287" />
    <path
       style="fill:#ffffff;fill-opacity:0.53876;stroke:none;stroke-width:1.73637;stroke-miterlimit:4;stroke-dasharray:none;stroke-opacity:1"
       d="m 146.93799,91.465508 c -0.12476,-2.323692 -2.53625,-9.545879 -4.34202,-13.003997 l -0.91865,-1.75924 6.01155,-3.351531 c 3.30635,-1.843343 9.69775,-5.405495 14.20312,-7.915895 l 8.19156,-4.564361 1.30916,2.59411 c 1.88227,3.729707 2.89313,6.078696 4.21894,9.803752 1.18379,3.325984 2.85127,9.537548 3.3159,12.352142 l 0.25418,1.539682 -0.83717,0.185835 c -0.70069,0.155539 -30.74987,4.810903 -31.214,4.835824 -0.0845,0.0045 -0.17117,-0.317808 -0.19257,-0.716321 z"
       id="path7358" />
  </g>
  <g
     inkscape:groupmode="layer"
     id="g4465"
     inkscape:label="图层 2 复制"
     style="display:none;opacity:0.903114">
    <path
       style="display:inline;fill:#000000;fill-opacity:0.744186;fill-rule:evenodd;stroke:none;stroke-width:6.18716;stroke-miterlimit:4;stroke-dasharray:none;stroke-opacity:1"
       d="m 344.79883,554.59766 a 179.89191,179.89191 0 0 0 14.75976,1.63672 179.89191,179.89191 0 0 1 -14.75976,-1.63672 z"
       transform="scale(0.26458333)"
       id="path5539" />
    <path
       style="display:inline;fill:#000000;fill-opacity:0.744186;fill-rule:evenodd;stroke:none;stroke-width:6.18716;stroke-miterlimit:4;stroke-dasharray:none;stroke-opacity:1"
       d="m 425.51562,550.73633 a 179.89191,179.89191 0 0 1 -14.66015,3.92969 179.89191,179.89191 0 0 0 14.66015,-3.92969 z"
       transform="scale(0.26458333)"
       id="path5535" />
    <path
       style="display:inline;fill:#000000;fill-opacity:0.744186;fill-rule:evenodd;stroke:none;stroke-width:6.18716;stroke-miterlimit:4;stroke-dasharray:none;stroke-opacity:1"
       d="m 529.67383,473.70898 a 179.89191,179.89191 0 0 1 -8.67774,12.39258 179.89191,179.89191 0 0 0 8.67774,-12.39258 z"
       transform="scale(0.26458333)"
       id="path5531" />
    <path
       style="display:inline;fill:#000000;fill-opacity:0.744186;fill-rule:evenodd;stroke:none;stroke-width:6.18716;stroke-miterlimit:4;stroke-dasharray:none;stroke-opacity:1"
       d="M 635,540.16992 A 304.12143,304.12143 0 0 1 625.5625,553.37109 304.12143,304.12143 0 0 0 635,540.16992 Z"
       transform="scale(0.26458333)"
       id="path5529" />
    <path
       style="display:inline;fill:#000000;fill-opacity:0.744186;fill-rule:evenodd;stroke:none;stroke-width:6.18716;stroke-miterlimit:4;stroke-dasharray:none;stroke-opacity:1"
       d="m 377.95312,198.06055 a 179.89191,179.89191 0 0 0 -14.97851,1.31054 179.89191,179.89191 0 0 1 14.97851,-1.31054 z"
       transform="scale(0.26458333)"
       id="path5525" />
    <path
       style="display:inline;fill:#000000;fill-opacity:0.744186;fill-rule:evenodd;stroke:none;stroke-width:6.18716;stroke-miterlimit:4;stroke-dasharray:none;stroke-opacity:1"
       d="m 151.68945,580.68555 a 304.12143,304.12143 0 0 1 -10.29297,-12.54883 304.12143,304.12143 0 0 0 10.29297,12.54883 z"
       transform="scale(0.26458333)"
       id="path5523" />
    <path
       style="display:inline;fill:#000000;fill-opacity:0.744186;fill-rule:evenodd;stroke:none;stroke-width:6.18716;stroke-miterlimit:4;stroke-dasharray:none;stroke-opacity:1"
       d="m 331.21875,678.22656 a 304.12143,304.12143 0 0 0 16.13672,1.65821 304.12143,304.12143 0 0 1 -16.13672,-1.65821 z"
       transform="scale(0.26458333)"
       id="path5521" />
    <path
       style="display:inline;fill:#000000;fill-opacity:0.744186;fill-rule:evenodd;stroke:none;stroke-width:6.18716;stroke-miterlimit:4;stroke-dasharray:none;stroke-opacity:1"
       d="m 234.75586,485.88281 a 179.89191,179.89191 0 0 0 9.52539,11.83399 179.89191,179.89191 0 0 1 -9.52539,-11.83399 z"
       transform="scale(0.26458333)"
       id="path5517" />
    <path
       style="display:inline;fill:#000000;fill-opacity:0.744186;fill-rule:evenodd;stroke:none;stroke-width:6.18716;stroke-miterlimit:4;stroke-dasharray:none;stroke-opacity:1"
       d="m 199.52148,361.24219 a 179.89191,179.89191 0 0 0 -1.32617,15.16015 179.89191,179.89191 0 0 1 1.32617,-15.16015 z"
       transform="scale(0.26458333)"
       id="path5513" />
    <path
       style="display:inline;fill:#000000;fill-opacity:0.744186;fill-rule:evenodd;stroke:none;stroke-width:6.18716;stroke-miterlimit:4;stroke-dasharray:none;stroke-opacity:1"
       d="m 257.20508,245.26172 a 179.89191,179.89191 0 0 0 -10.73438,10.73437 179.89191,179.89191 0 0 1 10.73438,-10.73437 z"
       transform="scale(0.26458333)"
       id="path5509" />
    <path
       style="display:inline;fill:#000000;fill-opacity:0.744186;fill-rule:evenodd;stroke:none;stroke-width:6.18716;stroke-miterlimit:4;stroke-dasharray:none;stroke-opacity:1"
       d="m 555.00195,346.41797 a 179.89191,179.89191 0 0 1 1.99414,15.02344 179.89191,179.89191 0 0 0 -1.99414,-15.02344 z"
       transform="scale(0.26458333)"
       id="path5505" />
    <path
       style="display:inline;fill:#000000;fill-opacity:0.744186;fill-rule:evenodd;stroke:none;stroke-width:6.18716;stroke-miterlimit:4;stroke-dasharray:none;stroke-opacity:1"
       d="m 676.81445,324.72461 a 304.12143,304.12143 0 0 1 2.59766,16.01367 304.12143,304.12143 0 0 0 -2.59766,-16.01367 z"
       transform="scale(0.26458333)"
       id="path5503" />
    <path
       style="display:inline;fill:#000000;fill-opacity:0.744186;fill-rule:evenodd;stroke:none;stroke-width:6.18716;stroke-miterlimit:4;stroke-dasharray:none;stroke-opacity:1"
       d="m 487.5332,235.39844 a 179.89191,179.89191 0 0 1 11.65821,9.74023 179.89191,179.89191 0 0 0 -11.65821,-9.74023 z"
       transform="scale(0.26458333)"
       id="path5499" />
    <path
       id="path5533"
       style="display:inline;fill:#ffb96f;fill-opacity:0.837209;fill-rule:evenodd;stroke:none;stroke-width:1.63702;stroke-miterlimit:4;stroke-dasharray:none;stroke-opacity:1"
       d="m 137.83913,128.62522 a 47.596401,47.596401 0 0 1 -25.25479,17.09043 c 0.005,0.0164 0.009,0.0342 0.0139,0.0506 a 47.596401,47.596401 0 0 0 1.81281,-0.60409 c 3.3586,10.51979 7.2884,22.18839 9.99836,31.35312 a 80.465461,80.465461 0 0 0 41.09982,-30.09635 c -8.15101,-4.98851 -18.36965,-11.79524 -27.67014,-17.79375 z m -14.69523,48.29369 a 80.465461,80.465461 0 0 1 -1.83761,0.47388 c 0.008,0.0327 0.0192,0.0712 0.0274,0.10387 a 80.465461,80.465461 0 0 0 1.81022,-0.57775 z" />
    <path
       id="path5527"
       style="display:inline;fill:#ffb96f;fill-opacity:0.837209;fill-rule:evenodd;stroke:none;stroke-width:1.63702;stroke-miterlimit:4;stroke-dasharray:none;stroke-opacity:1"
       d="m 179.76163,90.156254 c -9.35822,1.802537 -21.4746,3.654462 -32.38872,5.485452 a 47.596401,47.596401 0 0 1 0.22325,4.358394 47.596401,47.596401 0 0 1 -7.29362,25.05686 47.596401,47.596401 0 0 0 0.83045,-1.3627 c 9.56983,5.51106 20.32754,11.48243 28.49438,16.42483 a 80.465461,80.465461 0 0 0 10.8381,-40.11899 80.465461,80.465461 0 0 0 -0.70384,-9.843846 z m -10.85204,51.206696 a 80.465461,80.465461 0 0 1 -0.98909,1.4981 c 0.029,0.0191 0.061,0.0398 0.0899,0.0589 a 80.465461,80.465461 0 0 0 0.89918,-1.55701 z" />
    <path
       id="path5519"
       style="display:inline;fill:#5af4ed;fill-opacity:0.829457;fill-rule:evenodd;stroke:none;stroke-width:1.63702;stroke-miterlimit:4;stroke-dasharray:none;stroke-opacity:1"
       d="m 65.183101,132.24877 a 47.596401,47.596401 0 0 0 0.753441,0.81494 c -7.91124,7.68859 -16.585835,16.38691 -23.569102,22.88542 a 80.465461,80.465461 0 0 0 45.26752,23.49831 c 0.826664,-9.50381 2.364986,-21.69273 3.592547,-32.71014 A 47.596401,47.596401 0 0 1 65.183101,132.24877 Z m -24.99124,21.34082 c -0.01865,0.016 -0.03872,0.0341 -0.05736,0.0501 a 80.465461,80.465461 0 0 0 1.173056,1.21336 80.465461,80.465461 0 0 1 -1.115695,-1.26349 z" />
    <path
       id="path5515"
       style="display:inline;fill:#5af4ed;fill-opacity:0.829457;fill-rule:evenodd;stroke:none;stroke-width:1.63702;stroke-miterlimit:4;stroke-dasharray:none;stroke-opacity:1"
       d="m 19.584334,99.307633 a 80.465461,80.465461 0 0 0 -0.04961,0.692467 80.465461,80.465461 0 0 0 15.53497,47.18781 c 7.33426,-6.1185 17.044302,-13.60777 25.696105,-20.48712 a 47.596401,47.596401 0 0 0 1.319298,1.87947 c 0.0089,-0.008 0.01852,-0.016 0.02739,-0.0238 a 47.596401,47.596401 0 0 1 -9.708967,-28.5564 47.596401,47.596401 0 0 1 0.03565,-0.410309 c -11.044145,-0.0883 -23.330799,0.004 -32.854841,-0.282151 z" />
    <path
       id="path5511"
       style="display:inline;fill:#5af4ed;fill-opacity:0.829457;fill-rule:evenodd;stroke:none;stroke-width:1.63702;stroke-miterlimit:4;stroke-dasharray:none;stroke-opacity:1"
       d="M 41.111701,45.383275 A 80.465461,80.465461 0 0 0 20.280416,91.135006 c 9.546997,0.42079 21.765386,1.426847 32.789211,2.170924 a 47.596401,47.596401 0 0 0 -0.349332,2.271181 c 0.0227,5.29e-4 0.04708,0.0011 0.06976,0.0016 A 47.596401,47.596401 0 0 1 65.212039,67.732335 C 57.119821,60.233739 47.974466,52.022689 41.111701,45.383312 Z" />
    <path
       id="path5507"
       style="display:inline;fill:#f7f7f7;fill-opacity:0.903101;fill-rule:evenodd;stroke:none;stroke-width:1.63702;stroke-miterlimit:4;stroke-dasharray:none;stroke-opacity:1"
       d="m 93.278027,20.015316 a 80.465461,80.465461 0 0 0 -46.2101,19.715075 c 6.764359,6.734302 15.106621,15.699089 22.748999,23.67349 A 47.596401,47.596401 0 0 0 68.780813,64.292199 47.596401,47.596401 0 0 1 96.031345,52.750785 C 95.10434,41.76877 93.878764,29.54887 93.278027,20.015316 Z" />
    <path
       id="path5501"
       style="display:inline;fill:#f7f7f7;fill-opacity:0.903101;fill-rule:evenodd;stroke:none;stroke-width:1.63702;stroke-miterlimit:4;stroke-dasharray:none;stroke-opacity:1"
       d="m 152.35556,38.935091 c -5.70327,7.643278 -13.43059,17.199419 -20.27783,25.924515 a 47.596401,47.596401 0 0 1 14.76653,26.796814 c 5.3e-4,-8.7e-5 0.001,8.7e-5 0.002,0 a 47.596401,47.596401 0 0 0 -0.36483,-1.880505 c 10.72138,-2.362041 22.58979,-5.167823 31.91174,-7.012493 A 80.465461,80.465461 0 0 0 152.35559,38.935091 Z" />
    <path
       id="path4467"
       style="display:inline;fill:#f7f7f7;fill-opacity:0.903101;fill-rule:evenodd;stroke:none;stroke-width:6.18716;stroke-miterlimit:4;stroke-dasharray:none;stroke-opacity:1"
       d="m 377.95312,73.832031 a 304.12143,304.12143 0 0 0 -9.20898,0.658203 c 0.0115,0.117754 0.0236,0.241399 0.0352,0.359375 a 304.12143,304.12143 0 0 1 14.85547,-0.314453 c 1.74696,35.903524 2.21998,82.056124 3.24804,123.763674 a 179.89191,179.89191 0 0 1 100.65039,37.09961 c 0.0113,-0.0132 0.0217,-0.0276 0.0293,-0.041 a 179.89191,179.89191 0 0 0 -5.79297,-4.2793 c 23.89863,-33.84919 49.86424,-71.84472 71.19336,-100.72851 A 304.12143,304.12143 0 0 0 377.95312,73.832031 Z"
       transform="scale(0.26458333)" />
  </g>
  <g
     inkscape:groupmode="layer"
     id="g58781"
     inkscape:label="图层 2 复制 复制"
     style="display:inline;opacity:0.903114">
    <path
       style="display:inline;fill:#000000;fill-opacity:0.744186;fill-rule:evenodd;stroke:none;stroke-width:6.18716;stroke-miterlimit:4;stroke-dasharray:none;stroke-opacity:1"
       d="m 344.79883,554.59766 a 179.89191,179.89191 0 0 0 14.75976,1.63672 179.89191,179.89191 0 0 1 -14.75976,-1.63672 z"
       transform="scale(0.26458333)"
       id="path58739" />
    <path
       style="display:inline;fill:#000000;fill-opacity:0.744186;fill-rule:evenodd;stroke:none;stroke-width:6.18716;stroke-miterlimit:4;stroke-dasharray:none;stroke-opacity:1"
       d="m 425.51562,550.73633 a 179.89191,179.89191 0 0 1 -14.66015,3.92969 179.89191,179.89191 0 0 0 14.66015,-3.92969 z"
       transform="scale(0.26458333)"
       id="path58741" />
    <path
       style="display:inline;fill:#000000;fill-opacity:0.744186;fill-rule:evenodd;stroke:none;stroke-width:6.18716;stroke-miterlimit:4;stroke-dasharray:none;stroke-opacity:1"
       d="m 529.67383,473.70898 a 179.89191,179.89191 0 0 1 -8.67774,12.39258 179.89191,179.89191 0 0 0 8.67774,-12.39258 z"
       transform="scale(0.26458333)"
       id="path58743" />
    <path
       style="display:inline;fill:#000000;fill-opacity:0.744186;fill-rule:evenodd;stroke:none;stroke-width:6.18716;stroke-miterlimit:4;stroke-dasharray:none;stroke-opacity:1"
       d="M 635,540.16992 A 304.12143,304.12143 0 0 1 625.5625,553.37109 304.12143,304.12143 0 0 0 635,540.16992 Z"
       transform="scale(0.26458333)"
       id="path58745" />
    <path
       style="display:inline;fill:#000000;fill-opacity:0.744186;fill-rule:evenodd;stroke:none;stroke-width:6.18716;stroke-miterlimit:4;stroke-dasharray:none;stroke-opacity:1"
       d="m 377.95312,198.06055 a 179.89191,179.89191 0 0 0 -14.97851,1.31054 179.89191,179.89191 0 0 1 14.97851,-1.31054 z"
       transform="scale(0.26458333)"
       id="path58747" />
    <path
       style="display:inline;fill:#000000;fill-opacity:0.744186;fill-rule:evenodd;stroke:none;stroke-width:6.18716;stroke-miterlimit:4;stroke-dasharray:none;stroke-opacity:1"
       d="m 151.68945,580.68555 a 304.12143,304.12143 0 0 1 -10.29297,-12.54883 304.12143,304.12143 0 0 0 10.29297,12.54883 z"
       transform="scale(0.26458333)"
       id="path58749" />
    <path
       style="display:inline;fill:#000000;fill-opacity:0.744186;fill-rule:evenodd;stroke:none;stroke-width:6.18716;stroke-miterlimit:4;stroke-dasharray:none;stroke-opacity:1"
       d="m 331.21875,678.22656 a 304.12143,304.12143 0 0 0 16.13672,1.65821 304.12143,304.12143 0 0 1 -16.13672,-1.65821 z"
       transform="scale(0.26458333)"
       id="path58751" />
    <path
       style="display:inline;fill:#000000;fill-opacity:0.744186;fill-rule:evenodd;stroke:none;stroke-width:6.18716;stroke-miterlimit:4;stroke-dasharray:none;stroke-opacity:1"
       d="m 234.75586,485.88281 a 179.89191,179.89191 0 0 0 9.52539,11.83399 179.89191,179.89191 0 0 1 -9.52539,-11.83399 z"
       transform="scale(0.26458333)"
       id="path58753" />
    <path
       style="display:inline;fill:#000000;fill-opacity:0.744186;fill-rule:evenodd;stroke:none;stroke-width:6.18716;stroke-miterlimit:4;stroke-dasharray:none;stroke-opacity:1"
       d="m 199.52148,361.24219 a 179.89191,179.89191 0 0 0 -1.32617,15.16015 179.89191,179.89191 0 0 1 1.32617,-15.16015 z"
       transform="scale(0.26458333)"
       id="path58755" />
    <path
       style="display:inline;fill:#000000;fill-opacity:0.744186;fill-rule:evenodd;stroke:none;stroke-width:6.18716;stroke-miterlimit:4;stroke-dasharray:none;stroke-opacity:1"
       d="m 257.20508,245.26172 a 179.89191,179.89191 0 0 0 -10.73438,10.73437 179.89191,179.89191 0 0 1 10.73438,-10.73437 z"
       transform="scale(0.26458333)"
       id="path58757" />
    <path
       style="display:inline;fill:#000000;fill-opacity:0.744186;fill-rule:evenodd;stroke:none;stroke-width:6.18716;stroke-miterlimit:4;stroke-dasharray:none;stroke-opacity:1"
       d="m 555.00195,346.41797 a 179.89191,179.89191 0 0 1 1.99414,15.02344 179.89191,179.89191 0 0 0 -1.99414,-15.02344 z"
       transform="scale(0.26458333)"
       id="path58759" />
    <path
       style="display:inline;fill:#000000;fill-opacity:0.744186;fill-rule:evenodd;stroke:none;stroke-width:6.18716;stroke-miterlimit:4;stroke-dasharray:none;stroke-opacity:1"
       d="m 676.81445,324.72461 a 304.12143,304.12143 0 0 1 2.59766,16.01367 304.12143,304.12143 0 0 0 -2.59766,-16.01367 z"
       transform="scale(0.26458333)"
       id="path58761" />
    <path
       style="display:inline;fill:#000000;fill-opacity:0.744186;fill-rule:evenodd;stroke:none;stroke-width:6.18716;stroke-miterlimit:4;stroke-dasharray:none;stroke-opacity:1"
       d="m 487.5332,235.39844 a 179.89191,179.89191 0 0 1 11.65821,9.74023 179.89191,179.89191 0 0 0 -11.65821,-9.74023 z"
       transform="scale(0.26458333)"
       id="path58763" />
    <path
       id="path58767"
       style="display:inline;fill:#ffb96f;fill-opacity:0.837209;fill-rule:evenodd;stroke:none;stroke-width:1.63702;stroke-miterlimit:4;stroke-dasharray:none;stroke-opacity:1"
       d="m 179.76163,90.156254 c -9.35822,1.802537 -21.4746,3.654462 -32.38872,5.485452 a 47.596401,47.596401 0 0 1 0.22325,4.358394 47.596401,47.596401 0 0 1 -7.29362,25.05686 47.596401,47.596401 0 0 0 0.83045,-1.3627 c 9.56983,5.51106 20.32754,11.48243 28.49438,16.42483 a 80.465461,80.465461 0 0 0 10.8381,-40.11899 80.465461,80.465461 0 0 0 -0.70384,-9.843846 z m -10.85204,51.206696 a 80.465461,80.465461 0 0 1 -0.98909,1.4981 c 0.029,0.0191 0.061,0.0398 0.0899,0.0589 a 80.465461,80.465461 0 0 0 0.89918,-1.55701 z" />
    <path
       id="path58771"
       style="display:inline;fill:#5af4ed;fill-opacity:0.829457;fill-rule:evenodd;stroke:none;stroke-width:1.63702;stroke-miterlimit:4;stroke-dasharray:none;stroke-opacity:1"
       d="m 19.584334,99.307633 a 80.465461,80.465461 0 0 0 -0.04961,0.692467 80.465461,80.465461 0 0 0 15.53497,47.18781 c 7.33426,-6.1185 17.044302,-13.60777 25.696105,-20.48712 a 47.596401,47.596401 0 0 0 1.319298,1.87947 c 0.0089,-0.008 0.01852,-0.016 0.02739,-0.0238 a 47.596401,47.596401 0 0 1 -9.708967,-28.5564 47.596401,47.596401 0 0 1 0.03565,-0.410309 c -11.044145,-0.0883 -23.330799,0.004 -32.854841,-0.282151 z" />
    <path
       id="path58773"
       style="display:inline;fill:#5af4ed;fill-opacity:0.829457;fill-rule:evenodd;stroke:none;stroke-width:1.63702;stroke-miterlimit:4;stroke-dasharray:none;stroke-opacity:1"
       d="M 41.111701,45.383275 A 80.465461,80.465461 0 0 0 20.280416,91.135006 c 9.546997,0.42079 21.765386,1.426847 32.789211,2.170924 a 47.596401,47.596401 0 0 0 -0.349332,2.271181 c 0.0227,5.29e-4 0.04708,0.0011 0.06976,0.0016 A 47.596401,47.596401 0 0 1 65.212039,67.732335 C 57.119821,60.233739 47.974466,52.022689 41.111701,45.383312 Z" />
    <path
       id="path58775"
       style="display:inline;fill:#f7f7f7;fill-opacity:0.903101;fill-rule:evenodd;stroke:none;stroke-width:1.63702;stroke-miterlimit:4;stroke-dasharray:none;stroke-opacity:1"
       d="m 93.278027,20.015316 a 80.465461,80.465461 0 0 0 -46.2101,19.715075 c 6.764359,6.734302 15.106621,15.699089 22.748999,23.67349 A 47.596401,47.596401 0 0 0 68.780813,64.292199 47.596401,47.596401 0 0 1 96.031345,52.750785 C 95.10434,41.76877 93.878764,29.54887 93.278027,20.015316 Z" />
    <path
       id="path58777"
       style="display:inline;fill:#f7f7f7;fill-opacity:0.903101;fill-rule:evenodd;stroke:none;stroke-width:1.63702;stroke-miterlimit:4;stroke-dasharray:none;stroke-opacity:1"
       d="m 152.35556,38.935091 c -5.70327,7.643278 -13.43059,17.199419 -20.27783,25.924515 a 47.596401,47.596401 0 0 1 14.76653,26.796814 c 5.3e-4,-8.7e-5 0.001,8.7e-5 0.002,0 a 47.596401,47.596401 0 0 0 -0.36483,-1.880505 c 10.72138,-2.362041 22.58979,-5.167823 31.91174,-7.012493 A 80.465461,80.465461 0 0 0 152.35559,38.935091 Z" />
    <path
       id="path58779"
       style="display:inline;fill:#f7f7f7;fill-opacity:0.903101;fill-rule:evenodd;stroke:none;stroke-width:6.18716;stroke-miterlimit:4;stroke-dasharray:none;stroke-opacity:1"
       d="m 377.95312,73.832031 a 304.12143,304.12143 0 0 0 -9.20898,0.658203 c 0.0115,0.117754 0.0236,0.241399 0.0352,0.359375 a 304.12143,304.12143 0 0 1 14.85547,-0.314453 c 1.74696,35.903524 2.21998,82.056124 3.24804,123.763674 a 179.89191,179.89191 0 0 1 100.65039,37.09961 c 0.0113,-0.0132 0.0217,-0.0276 0.0293,-0.041 a 179.89191,179.89191 0 0 0 -5.79297,-4.2793 c 23.89863,-33.84919 49.86424,-71.84472 71.19336,-100.72851 A 304.12143,304.12143 0 0 0 377.95312,73.832031 Z"
       transform="scale(0.26458333)" />
  </g>
  <g
     inkscape:groupmode="layer"
     id="layer2"
     inkscape:label="图层 2"
     style="display:none;opacity:0.792388">
    <path
       id="circle4204"
       style="fill:#000000;fill-opacity:0.744186;fill-rule:evenodd;stroke:none;stroke-width:6.18716;stroke-miterlimit:4;stroke-dasharray:none;stroke-opacity:1"
       d="m 368.74414,74.490234 a 304.12143,304.12143 0 0 0 -16.19726,1.158204 c 2.27052,36.032332 6.90258,82.217782 10.40624,123.724612 a 179.89191,179.89191 0 0 1 15,-1.3125 179.89191,179.89191 0 0 1 0.11915,0.004 c -3.07809,-41.63802 -5.81721,-87.76553 -9.32813,-123.574216 z M 463.6875,86.169922 C 452.78791,120.50359 440.3977,165.33209 428.63867,205.44141 a 179.89191,179.89191 0 0 1 14.39844,4.84179 c 12.1501,-39.87049 26.22604,-83.78638 35.89062,-118.427731 A 304.12143,304.12143 0 0 0 463.6875,86.169922 Z M 259.73438,98.287109 a 304.12143,304.12143 0 0 0 -14.80274,6.677731 c 15.13557,32.80867 36.2069,74.32812 54.51563,111.86328 a 179.89191,179.89191 0 0 1 13.7539,-6.41406 C 295.25512,172.63575 275.98005,130.47941 259.73438,98.287109 Z m 303.10156,39.140621 c -22.49238,28.02744 -50.01873,65.03929 -75.30274,97.97071 a 179.89191,179.89191 0 0 1 11.65821,9.74023 c 25.87935,-32.97674 55.08495,-69.09444 76.64062,-97.98242 a 304.12143,304.12143 0 0 0 -12.99609,-9.72852 z m -395.96485,22.61133 a 304.12143,304.12143 0 0 0 -11.48828,11.48828 c 25.93801,25.09371 60.50313,56.1276 91.08789,84.46875 a 179.89191,179.89191 0 0 1 10.73438,-10.73437 C 226.8514,216.54739 193.66592,184.21577 166.87109,160.03906 Z m 470.62305,60.26563 c -31.13047,18.01624 -70.28924,42.66782 -105.85547,64.29883 a 179.89191,179.89191 0 0 1 7.32617,13.30664 c 35.83702,-21.27836 75.8304,-44.24901 106.31836,-63.3418 a 304.12143,304.12143 0 0 0 -7.78906,-14.26367 z m -535.71289,30.45703 a 304.12143,304.12143 0 0 0 -5.802734,15.16211 c 33.192154,13.99886 76.482004,30.39867 115.152344,45.74023 a 179.89191,179.89191 0 0 1 6.42187,-13.77148 c -38.93879,-15.9154 -81.93651,-34.24793 -115.77148,-47.13086 z m 575.0332,73.96289 c -35.51797,5.55472 -80.87684,14.37838 -121.8125,21.69336 A 179.89191,179.89191 0 0 1 557,361.48047 c 41.25021,-6.92028 87.04441,-13.91968 122.41406,-20.73242 a 304.12143,304.12143 0 0 0 -2.59961,-16.02344 z M 75.179688,359.11719 a 304.12143,304.12143 0 0 0 -1.160157,16.21875 c 35.996379,1.08152 82.434129,0.73268 124.175779,1.0664 a 179.89191,179.89191 0 0 1 1.32617,-15.16015 c -41.81339,-0.76908 -88.20124,-2.30929 -124.341792,-2.125 z M 554.23438,412.4668 a 179.89191,179.89191 0 0 1 -3.9375,14.6875 c 41.01124,8.44998 86.39291,18.50645 121.96484,24.96289 a 304.12143,304.12143 0 0 0 3.45117,-15.8711 C 640.54683,428.5918 595.03874,420.43453 554.23438,412.4668 Z m -348.7129,14.36718 c -39.39123,14.43263 -83.37383,29.80553 -117.037105,43.0586 a 304.12143,304.12143 0 0 0 5.673828,15.21289 C 128.0553,473.10954 170.97239,456.11999 209.81836,441.42773 a 179.89191,179.89191 0 0 1 -4.29688,-14.59375 z m 324.15625,46.86914 a 179.89191,179.89191 0 0 1 -8.71093,12.43946 c 35.15144,22.67152 73.77309,48.39776 104.58008,67.25195 A 304.12143,304.12143 0 0 0 635,540.16992 c -30.11785,-19.92424 -69.93923,-44.15936 -105.32227,-66.4668 z m -294.92187,12.17969 c -31.44897,27.62583 -66.79721,57.76095 -93.36914,82.24219 a 304.12143,304.12143 0 0 0 10.30273,12.56055 c 27.37538,-23.49648 61.50675,-55.08817 92.5918,-82.96875 a 179.89191,179.89191 0 0 1 -9.52539,-11.83399 z m 250.00391,36.05469 a 179.89191,179.89191 0 0 1 -12.4336,8.70312 c 24.65125,33.93004 51.44097,71.97249 73.36719,100.67188 a 304.12143,304.12143 0 0 0 12.99609,-9.73047 C 537.80359,592.16094 509.57768,555.3655 484.75977,521.9375 Z m -201.42188,8.53711 c -19.31385,37.05485 -41.32524,77.81235 -57.23633,110.18555 a 304.12143,304.12143 0 0 0 14.25586,7.7832 c 17.03248,-31.81109 37.41104,-73.51932 56.28906,-110.66992 a 179.89191,179.89191 0 0 1 -13.30859,-7.29883 z m 142.17773,20.26172 a 179.89191,179.89191 0 0 1 -14.66015,3.92969 c 10.66255,40.30369 21.81931,85.08019 31.84375,119.64257 a 304.12143,304.12143 0 0 0 15.88476,-3.45507 c -8.84904,-35.04993 -21.9544,-79.80547 -33.06836,-120.11719 z m -80.71874,3.86133 c -4.6396,41.64064 -10.45373,87.709 -13.57813,123.6289 a 304.12143,304.12143 0 0 0 16.14648,1.66016 c 4.39407,-35.84127 8.3312,-82.13986 12.51758,-123.62305 a 179.89191,179.89191 0 0 1 -15.08593,-1.66601 z"
       transform="scale(0.26458333)" />
  </g>
  <g
     inkscape:groupmode="layer"
     id="layer5"
     inkscape:label="hand"
     style="display:none">
    <circle
       style="fill:#ff8080;fill-opacity:1;fill-rule:evenodd;stroke-width:0.224362"
       id="path7690"
       cx="100"
       cy="100"
       r="10" />
    <rect
       style="fill:#ff8080;fill-opacity:0.976744;stroke:none;stroke-width:2.1324;stroke-miterlimit:4;stroke-dasharray:none;stroke-opacity:1"
       id="rect8002"
       width="5.269083"
       height="74.528206"
       x="97.415367"
       y="22.887157"
       ry="3.5732682" />
  </g>
  <g
     inkscape:groupmode="layer"
     id="layer6"
     inkscape:label="text"
     style="display:none">
    <text
       xml:space="preserve"
       style="font-style:normal;font-weight:normal;font-size:10.5833px;line-height:1.25;font-family:sans-serif;fill:#000000;fill-opacity:1;stroke:none;stroke-width:0.264583"
       x="5.898756"
       y="99.021645"
       id="text8048"><tspan
         sodipodi:role="line"
         id="tspan8046"
         style="stroke-width:0.264583"
         x="5.898756"
         y="99.021645">-10</tspan></text>
    <text
       xml:space="preserve"
       style="font-style:normal;font-weight:normal;font-size:10.5833px;line-height:1.25;font-family:sans-serif;display:inline;fill:#000000;fill-opacity:1;stroke:none;stroke-width:0.264583"
       x="28.838329"
       y="41.5326"
       id="text8048-5"><tspan
         sodipodi:role="line"
         id="tspan8046-0"
         style="stroke-width:0.264583"
         x="28.838329"
         y="41.5326">0</tspan></text>
    <text
       xml:space="preserve"
       style="font-style:normal;font-weight:normal;font-size:10.5833px;line-height:1.25;font-family:sans-serif;display:inline;fill:#000000;fill-opacity:1;stroke:none;stroke-width:0.264583"
       x="89.48037"
       y="16.67449"
       id="text8048-5-9"><tspan
         sodipodi:role="line"
         id="tspan8046-0-3"
         style="stroke-width:0.264583"
         x="89.48037"
         y="16.67449">10</tspan></text>
    <text
       xml:space="preserve"
       style="font-style:normal;font-weight:normal;font-size:10.5833px;line-height:1.25;font-family:sans-serif;display:inline;fill:#000000;fill-opacity:1;stroke:none;stroke-width:0.264583"
       x="147.56682"
       y="35.956852"
       id="text8048-5-9-4"><tspan
         sodipodi:role="line"
         id="tspan8046-0-3-6"
         style="stroke-width:0.264583"
         x="147.56682"
         y="35.956852">20</tspan></text>
    <text
       xml:space="preserve"
       style="font-style:normal;font-weight:normal;font-size:10.5833px;line-height:1.25;font-family:sans-serif;display:inline;fill:#000000;fill-opacity:1;stroke:none;stroke-width:0.264583"
       x="180.07889"
       y="90.8489"
       id="text8048-5-9-4-6"><tspan
         sodipodi:role="line"
         id="tspan8046-0-3-6-4"
         style="stroke-width:0.264583"
         x="180.07889"
         y="90.8489">30</tspan></text>
    <text
       xml:space="preserve"
       style="font-style:normal;font-weight:normal;font-size:10.5833px;line-height:1.25;font-family:sans-serif;display:inline;fill:#000000;fill-opacity:1;stroke:none;stroke-width:0.264583"
       x="166.16197"
       y="152.18216"
       id="text8048-5-9-4-6-9"><tspan
         sodipodi:role="line"
         id="tspan8046-0-3-6-4-2"
         style="stroke-width:0.264583"
         x="166.16197"
         y="152.18216">40</tspan></text>
    <text
       xml:space="preserve"
       style="font-style:normal;font-weight:normal;font-size:10.5833px;line-height:1.25;font-family:sans-serif;display:inline;fill:#000000;fill-opacity:1;stroke:none;stroke-width:0.264583"
       x="116.98161"
       y="188.17111"
       id="text8048-5-9-4-6-9-9"><tspan
         sodipodi:role="line"
         id="tspan8046-0-3-6-4-2-5"
         style="stroke-width:0.264583"
         x="116.98161"
         y="188.17111">℃</tspan></text>
    <text
       xml:space="preserve"
       style="font-style:normal;font-weight:normal;font-size:10.5833px;line-height:1.25;font-family:sans-serif;fill:#000000;fill-opacity:1;stroke:none;stroke-width:0.264583"
       x="19.077806"
       y="160.35492"
       id="text13708"><tspan
         sodipodi:role="line"
         id="tspan13706"
         style="stroke-width:0.264583"
         x="19.077806"
         y="160.35492">-20</tspan></text>
    <text
       xml:space="preserve"
       style="font-style:normal;font-weight:normal;font-size:10.5833px;line-height:1.25;font-family:sans-serif;display:inline;fill:#000000;fill-opacity:1;stroke:none;stroke-width:0.264583"
       x="62.630768"
       y="128.69643"
       id="text13708-6"><tspan
         sodipodi:role="line"
         id="tspan13706-4"
         style="stroke-width:0.264583"
         x="62.630768"
         y="128.69643">-4</tspan></text>
    <text
       xml:space="preserve"
       style="font-style:normal;font-weight:normal;font-size:10.5833px;line-height:1.25;font-family:sans-serif;display:inline;fill:#000000;fill-opacity:1;stroke:none;stroke-width:0.264583"
       x="54.793743"
       y="100.31078"
       id="text13708-6-3"><tspan
         sodipodi:role="line"
         id="tspan13706-4-6"
         style="stroke-width:0.264583"
         x="54.793743"
         y="100.31078">14</tspan></text>
    <text
       xml:space="preserve"
       style="font-style:normal;font-weight:normal;font-size:10.5833px;line-height:1.25;font-family:sans-serif;display:inline;fill:#000000;fill-opacity:1;stroke:none;stroke-width:0.264583"
       x="64.255623"
       y="75.304375"
       id="text13708-6-3-9"><tspan
         sodipodi:role="line"
         id="tspan13706-4-6-3"
         style="stroke-width:0.264583"
         x="64.255623"
         y="75.304375">32</tspan></text>
    <text
       xml:space="preserve"
       style="font-style:normal;font-weight:normal;font-size:10.5833px;line-height:1.25;font-family:sans-serif;display:inline;fill:#000000;fill-opacity:1;stroke:none;stroke-width:0.264583"
       x="88.248253"
       y="62.463242"
       id="text13708-6-3-9-1"><tspan
         sodipodi:role="line"
         id="tspan13706-4-6-3-2"
         style="stroke-width:0.264583"
         x="88.248253"
         y="62.463242">50</tspan></text>
    <text
       xml:space="preserve"
       style="font-style:normal;font-weight:normal;font-size:10.5833px;line-height:1.25;font-family:sans-serif;display:inline;fill:#000000;fill-opacity:1;stroke:none;stroke-width:0.264583"
       x="118.99937"
       y="72.263054"
       id="text13708-6-3-9-1-3"><tspan
         sodipodi:role="line"
         id="tspan13706-4-6-3-2-7"
         style="stroke-width:0.264583"
         x="118.99937"
         y="72.263054">68</tspan></text>
    <text
       xml:space="preserve"
       style="font-style:normal;font-weight:normal;font-size:10.5833px;line-height:1.25;font-family:sans-serif;display:inline;fill:#000000;fill-opacity:1;stroke:none;stroke-width:0.264583"
       x="135.21974"
       y="96.931534"
       id="text13708-6-3-9-1-3-2"><tspan
         sodipodi:role="line"
         id="tspan13706-4-6-3-2-7-5"
         style="stroke-width:0.264583"
         x="135.21974"
         y="96.931534">86</tspan></text>
    <text
       xml:space="preserve"
       style="font-style:normal;font-weight:normal;font-size:10.5833px;line-height:1.25;font-family:sans-serif;display:inline;fill:#000000;fill-opacity:1;stroke:none;stroke-width:0.264583"
       x="128.46126"
       y="126.33096"
       id="text13708-6-3-9-1-3-2-9"><tspan
         sodipodi:role="line"
         id="tspan13706-4-6-3-2-7-5-5"
         style="stroke-width:0.264583"
         x="128.46126"
         y="126.33096">104</tspan></text>
    <text
       xml:space="preserve"
       style="font-style:normal;font-weight:normal;font-size:10.5833px;line-height:1.25;font-family:sans-serif;display:inline;fill:#000000;fill-opacity:1;stroke:none;stroke-width:0.264583"
       x="103.79278"
       y="145.25471"
       id="text13708-6-3-9-1-3-2-9-5"><tspan
         sodipodi:role="line"
         id="tspan13706-4-6-3-2-7-5-5-1"
         style="stroke-width:0.264583"
         x="103.79278"
         y="145.25471">℉</tspan></text>
  </g>
  <g
     inkscape:groupmode="layer"
     id="layer3"
     inkscape:label="path"
     style="display:none" />
  <g
     inkscape:groupmode="layer"
     id="layer8"
     inkscape:label="cross"
     style="display:none;opacity:1"
     sodipodi:insensitive="true">
    <ellipse
       style="display:inline;fill:#eb0000;fill-opacity:1;fill-rule:evenodd;stroke:none;stroke-width:1.831;stroke-miterlimit:4;stroke-dasharray:none;stroke-opacity:1"
       id="circle1172"
       ry="0.02093339"
       rx="0.022408808"
       cy="100"
       cx="100" />
    <ellipse
       style="display:inline;fill:#eb0000;fill-opacity:1;fill-rule:evenodd;stroke:none;stroke-width:1.831;stroke-miterlimit:4;stroke-dasharray:none;stroke-opacity:1"
       id="ellipse3759"
       ry="121.30663"
       rx="0.022408808"
       cy="100"
       cx="100" />
    <ellipse
       style="display:inline;fill:#eb0000;fill-opacity:1;fill-rule:evenodd;stroke:none;stroke-width:1.831;stroke-miterlimit:4;stroke-dasharray:none;stroke-opacity:1"
       id="ellipse3871"
       ry="0.02093339"
       rx="121.63359"
       cy="100"
       cx="100" />
  </g>
</svg>
